<svg width="68" height="48" viewBox="0 0 68 48" fill="none" xmlns="http://www.w3.org/2000/svg">
<path d="M41.541 2.00391C42.1371 1.98222 42.7371 2.0574 43.3096 2.22949L43.5225 2.29785C44.017 2.46951 44.4881 2.71575 44.9102 3.03516C45.3928 3.40046 45.8096 3.86011 46.1152 4.40137C46.422 4.94459 46.6068 5.55286 46.6406 6.18848C46.6745 6.82436 46.5546 7.45041 46.3018 8.02539L30.8174 43.2256C30.4232 44.1216 29.737 44.8272 28.9258 45.2969C28.1156 45.7659 27.185 46.0001 26.2578 46V45.999C25.7282 45.9994 25.1985 45.9227 24.6904 45.7686V45.7695C23.5483 45.4262 22.5024 44.6879 21.8867 43.5986C21.2561 42.4828 21.1777 41.1607 21.6973 39.9766L21.6982 39.9746L37.1816 4.77539C37.4335 4.20228 37.808 3.7029 38.2598 3.29492C38.7109 2.88756 39.2356 2.57484 39.7939 2.35938C40.3523 2.14397 40.9452 2.02562 41.541 2.00391ZM15.5361 12.501C16.5308 11.8271 17.7485 11.537 18.9297 11.6299C20.11 11.7227 21.2746 12.2002 22.1377 13.0566C23.0145 13.9268 23.5161 15.1382 23.3799 16.4307C23.2447 17.713 22.5132 18.7887 21.5205 19.4834L21.5088 19.4912L14.9619 24L21.4961 28.5L21.6816 28.6328C22.1072 28.9515 22.4825 29.3434 22.7773 29.8008C23.1154 30.3253 23.3381 30.9222 23.4111 31.5566C23.4842 32.1921 23.4026 32.8284 23.1807 33.4219C22.9595 34.0132 22.6093 34.5355 22.1738 34.9678C21.739 35.3993 21.2246 35.7368 20.6719 35.9756C20.1192 36.2144 19.5274 36.3554 18.9297 36.3984C18.3318 36.4415 17.7262 36.387 17.1455 36.2344C16.5697 36.083 16.0175 35.8338 15.5234 35.4902V35.4912L3.91016 27.4912L3.91113 27.4902C3.3563 27.1081 2.87625 26.6084 2.53418 26.0049C2.19042 25.3983 2 24.712 2 24C2.00005 23.2882 2.19049 22.6026 2.53418 21.9961C2.87631 21.3924 3.3561 20.891 3.91113 20.5088H3.91016L15.5234 12.5098L15.5303 12.5049L15.5361 12.501ZM49.0703 11.6025C49.6682 11.5595 50.2738 11.614 50.8545 11.7666C51.4348 11.9192 51.9923 12.1698 52.4893 12.5176H52.4883L64.0898 20.5088H64.0889C64.6439 20.891 65.1237 21.3924 65.4658 21.9961C65.8095 22.6026 66 23.2882 66 24C66 24.712 65.8096 25.3983 65.4658 26.0049C65.1238 26.6084 64.6437 27.1081 64.0889 27.4902L64.0898 27.4912L52.4766 35.4912L52.4756 35.4902C51.9817 35.8336 51.4301 36.0831 50.8545 36.2344C50.2738 36.387 49.6682 36.4415 49.0703 36.3984C48.4726 36.3554 47.8808 36.2144 47.3281 35.9756C46.7754 35.7368 46.261 35.3993 45.8262 34.9678C45.3907 34.5355 45.0405 34.0132 44.8193 33.4219C44.5974 32.8284 44.5158 32.1921 44.5889 31.5566L44.623 31.3203C44.7192 30.7739 44.9269 30.2598 45.2227 29.8008C45.5597 29.2779 46.0017 28.8403 46.5039 28.5L53.0371 24L46.4912 19.4912V19.4902C45.9945 19.1513 45.5567 18.7184 45.2227 18.2002C44.8846 17.6756 44.6619 17.0788 44.5889 16.4443C44.5157 15.8089 44.5974 15.1726 44.8193 14.5791C45.0405 13.9876 45.3905 13.4646 45.8262 13.0322C46.261 12.6007 46.7755 12.2642 47.3281 12.0254C47.8808 11.7866 48.4726 11.6456 49.0703 11.6025Z" fill="#82BC4F" stroke="#16181D" stroke-width="4"/>
</svg>
