<svg width="38" height="34" viewBox="0 0 38 34" fill="none" xmlns="http://www.w3.org/2000/svg">
<path d="M24.0176 2.49976C24.4191 2.5018 24.8181 2.57316 25.1963 2.71069L25.1953 2.71167C25.6272 2.86865 26.0243 3.1084 26.3633 3.4187C26.6599 3.69021 26.9073 4.01023 27.0947 4.36499L27.1719 4.51929L27.2402 4.67749C27.3703 4.99609 27.4534 5.33192 27.4854 5.67456L27.4971 5.84644L27.5 6.01831C27.4979 6.41967 27.4265 6.81805 27.2891 7.19604L26.7314 8.72729C27.0375 8.60928 27.3595 8.53419 27.6875 8.50562L27.8594 8.49487C28.2049 8.4819 28.5505 8.51984 28.8848 8.60815L29.0508 8.65698L29.2148 8.71362C29.5878 8.85288 29.9346 9.05488 30.2402 9.31128L36.2402 14.3113L36.3838 14.4382C36.6648 14.6997 36.9013 15.0053 37.083 15.3435L37.1689 15.5154L37.2461 15.6912C37.4136 16.1065 37.5 16.5507 37.5 16.9998C37.5 17.5129 37.3867 18.0204 37.1689 18.4851C36.9784 18.8917 36.7117 19.2572 36.3838 19.5623L36.2402 19.6892L30.2402 24.6892C29.8904 24.9827 29.4861 25.2051 29.0508 25.3435C28.6108 25.4833 28.1474 25.5349 27.6875 25.4949C27.2273 25.4548 26.7786 25.3241 26.3691 25.1101C25.9598 24.8962 25.5974 24.6027 25.3018 24.2478C25.0061 23.8929 24.7829 23.4831 24.6465 23.0417C24.5101 22.6005 24.4631 22.1363 24.5068 21.6765L24.5273 21.5046C24.5853 21.1055 24.7113 20.7188 24.9014 20.3621L24.9873 20.2117C25.1944 19.8654 25.4598 19.5568 25.7725 19.3005L28.5322 16.9998L25.7598 14.6892V14.6882C25.4224 14.409 25.1406 14.0693 24.9287 13.6863L19.2891 29.1951C19.0435 29.8704 18.5964 30.4547 18.0078 30.8669C17.4199 31.2787 16.7197 31.4984 16.002 31.4988L16.0029 31.4998L16.001 31.4988L16 31.4998V31.4988C15.5917 31.499 15.1871 31.4273 14.8037 31.2869V31.2888C13.9318 30.9717 13.2218 30.3208 12.8291 29.4802C12.4365 28.6396 12.3936 27.6776 12.71 26.8054V26.8044L13.2666 25.2732C12.9611 25.3908 12.6399 25.4664 12.3125 25.4949C11.8524 25.5349 11.3884 25.4834 10.9482 25.3435C10.5131 25.2051 10.1095 24.9826 9.75977 24.6892L3.75977 19.6892C3.36559 19.3608 3.04875 18.9497 2.83105 18.4851C2.61334 18.0204 2.5 17.5129 2.5 16.9998C2.50005 16.4867 2.61339 15.98 2.83105 15.5154L2.91699 15.3435C3.12891 14.9491 3.41488 14.5986 3.75977 14.3113L9.75977 9.31128L9.76562 9.30542L9.77246 9.30054C10.4421 8.75184 11.2896 8.47213 12.1504 8.51147L12.3223 8.52319L12.4941 8.5437C13.3466 8.66755 14.1257 9.10245 14.6797 9.76733C15.2707 10.4768 15.5576 11.3914 15.4775 12.3113C15.3974 13.2312 14.9567 14.0828 14.252 14.6794L14.2402 14.6892L11.4668 16.9998L14.2275 19.3005C14.5703 19.5814 14.8548 19.9258 15.0693 20.3132L20.71 4.80444C20.8669 4.37241 21.1076 3.97554 21.418 3.63647L21.5371 3.51245C21.8224 3.22997 22.155 2.99808 22.5195 2.82788L22.6768 2.75952C23.0484 2.60777 23.4438 2.52039 23.8457 2.50269L24.0176 2.49976Z" fill="#82BC4F" stroke="#16181D" stroke-width="4"/>
</svg>
