<svg width="430" height="932" viewBox="0 0 430 932" fill="none" xmlns="http://www.w3.org/2000/svg">
<rect width="430" height="932" fill="white"/>
<path d="M0 0H430V550H0V0Z" fill="#FAF3D4"/>
<path d="M173.289 20.9375V23H160.727V20.9375H165.719V18.8047H168.32V20.9375H173.289ZM167.008 23.8203C170.078 23.8203 172.164 25.3672 172.188 27.6875C172.164 30.0078 170.078 31.5547 167.008 31.5547C163.938 31.5547 161.805 30.0078 161.805 27.6875C161.805 25.3672 163.938 23.8203 167.008 23.8203ZM167.008 25.7891C165.391 25.7891 164.336 26.4922 164.336 27.6875C164.336 28.8828 165.391 29.5625 167.008 29.5391C168.625 29.5625 169.703 28.8828 169.703 27.6875C169.703 26.4922 168.625 25.7891 167.008 25.7891ZM177.414 18.8984V24.5234H180.367V26.6562H177.414V32.1641H174.812V18.8984H177.414ZM177.414 33.1484V40.0859H174.812V35.2344H163.305V33.1484H177.414ZM199.211 18.9219V34.9531H196.586V33.1016H192.438V31.2734H196.586V18.9219H199.211ZM199.703 37.5547V39.6641H184.164V33.4062H186.766V37.5547H199.703ZM181.352 28.4375C185.266 28.4141 190.516 28.3672 195.016 27.8047L195.156 29.6797C193.41 29.9727 191.605 30.1719 189.812 30.2891V34.3672H187.211V30.4297C185.23 30.5117 183.344 30.5234 181.68 30.5234L181.352 28.4375ZM188.266 19.6953C191.359 19.6953 193.516 21.2188 193.539 23.4453C193.516 25.7188 191.359 27.1719 188.266 27.1719C185.125 27.1719 182.969 25.7188 182.969 23.4453C182.969 21.2188 185.125 19.6953 188.266 19.6953ZM188.266 21.6172C186.578 21.6172 185.43 22.2969 185.43 23.4453C185.43 24.5938 186.578 25.2734 188.266 25.2734C189.883 25.2734 191.031 24.5938 191.055 23.4453C191.031 22.2969 189.883 21.6172 188.266 21.6172ZM219.812 18.8984V40.1094H217.188V18.8984H219.812ZM205.914 20.6328V25.9297H211.047V20.6328H213.625V35.1172H203.312V20.6328H205.914ZM205.914 32.9844H211.047V27.9688H205.914V32.9844ZM246.367 18.8984V29.6328H243.766V27.7812H238.656V25.7891H243.766V23.7031H238.938C237.602 26.9375 234.508 29.0469 229.82 30.1016L228.906 27.9688C233.887 26.9375 236.371 24.7461 236.734 21.9219H230.078V19.8125H239.641C239.641 20.4805 239.582 21.1133 239.5 21.7109H243.766V18.8984H246.367ZM246.367 30.4531V36.0312H235.047V37.7891H246.93V39.875H232.445V34.0859H243.766V32.5156H232.422V30.4531H246.367ZM267.602 18.8984V40.0859H265.117V18.8984H267.602ZM263.289 19.2969V39.0547H260.828V28.3906H257.781V26.2812H260.828V19.2969H263.289ZM255.906 24.6875C255.906 28.2734 257.195 31.8594 260.219 33.5938L258.672 35.5156C256.715 34.3438 255.414 32.3281 254.688 29.9141C253.938 32.5273 252.59 34.7539 250.586 36.0078L248.992 34.0625C252.062 32.2109 253.398 28.3672 253.398 24.6875V23.2812H249.719V21.1719H259.328V23.2812H255.906V24.6875Z" fill="#333333"/>
<rect x="25" y="700" width="380" height="80" rx="10" fill="#457BE5"/>
<path d="M134.167 734.207V748.347H131.217V737H131.139L127.897 739.031V736.433L131.393 734.207H134.167ZM142.917 748.543C139.987 748.523 137.213 746.785 137.213 741.609C137.213 736.844 139.499 734.011 143.034 734.011C145.885 734.011 147.819 735.808 148.112 738.133H145.221C144.987 737.136 144.167 736.531 143.034 736.531C141.12 736.531 140.104 738.269 140.084 741.043H140.221C140.866 739.793 142.272 739.051 143.834 739.051C146.374 739.051 148.268 740.965 148.268 743.621C148.268 746.492 146.1 748.562 142.917 748.543ZM142.897 746.219C144.342 746.219 145.417 745.125 145.417 743.699C145.417 742.293 144.381 741.179 142.936 741.179C141.491 741.179 140.397 742.312 140.377 743.699C140.397 745.086 141.452 746.219 142.897 746.219ZM155.788 748.543C152.252 748.543 150.104 745.906 150.104 741.277C150.104 736.648 152.252 734.011 155.788 734.011C159.323 734.011 161.471 736.668 161.471 741.277C161.471 745.926 159.323 748.543 155.788 748.543ZM155.788 746.121C157.428 746.121 158.483 744.539 158.463 741.277C158.463 738.054 157.428 736.414 155.788 736.414C154.147 736.414 153.112 738.054 153.112 741.277C153.092 744.539 154.147 746.121 155.788 746.121ZM166.081 746.902L164.401 752.469H162.331L163.307 746.902H166.081ZM173.561 748.543C170.026 748.543 167.877 745.906 167.877 741.277C167.877 736.648 170.026 734.011 173.561 734.011C177.096 734.011 179.245 736.668 179.245 741.277C179.245 745.926 177.096 748.543 173.561 748.543ZM173.561 746.121C175.202 746.121 176.256 744.539 176.237 741.277C176.237 738.054 175.202 736.414 173.561 736.414C171.92 736.414 170.885 738.054 170.885 741.277C170.866 744.539 171.92 746.121 173.561 746.121ZM186.764 748.543C183.229 748.543 181.081 745.906 181.081 741.277C181.081 736.648 183.229 734.011 186.764 734.011C190.299 734.011 192.448 736.668 192.448 741.277C192.448 745.926 190.299 748.543 186.764 748.543ZM186.764 746.121C188.405 746.121 189.459 744.539 189.44 741.277C189.44 738.054 188.405 736.414 186.764 736.414C185.124 736.414 184.088 738.054 184.088 741.277C184.069 744.539 185.124 746.121 186.764 746.121ZM199.967 748.543C196.432 748.543 194.284 745.906 194.284 741.277C194.284 736.648 196.432 734.011 199.967 734.011C203.502 734.011 205.651 736.668 205.651 741.277C205.651 745.926 203.502 748.543 199.967 748.543ZM199.967 746.121C201.608 746.121 202.663 744.539 202.643 741.277C202.643 738.054 201.608 736.414 199.967 736.414C198.327 736.414 197.292 738.054 197.292 741.277C197.272 744.539 198.327 746.121 199.967 746.121ZM226.764 732.39V745.808H224.264V744.402H220.866V742.703H224.264V732.39H226.764ZM227.155 747.84V749.832H213.913V744.519H216.393V742.156C214.801 742.224 213.288 742.234 211.94 742.234L211.647 740.261C214.909 740.242 219.303 740.203 223.053 739.734L223.19 741.511C221.784 741.746 220.329 741.912 218.893 742.019V745.398H216.393V747.84H227.155ZM217.428 732.996C220.006 732.976 221.862 734.285 221.862 736.179C221.862 738.074 220.006 739.304 217.428 739.304C214.792 739.304 212.956 738.074 212.956 736.179C212.956 734.285 214.772 732.976 217.428 732.996ZM217.428 734.812C216.159 734.812 215.299 735.301 215.319 736.179C215.299 737.039 216.159 737.508 217.428 737.508C218.62 737.508 219.479 737.039 219.499 736.179C219.479 735.301 218.62 734.812 217.428 734.812ZM248.581 732.371V741.316H246.1V739.949H242.038V738.054H246.1V736.492H242.233C241.129 739.168 238.59 740.877 234.655 741.726L233.815 739.695C237.887 738.885 239.772 737.205 240.104 735.066H234.811V733.054H242.858C242.858 733.592 242.819 734.109 242.741 734.597H246.1V732.371H248.581ZM248.581 741.961V746.824H239.284V747.996H248.971V749.969H236.784V744.988H246.081V743.914H236.764V741.961H248.581ZM266.256 732.371V750.144H263.893V732.371H266.256ZM262.624 732.664V749.324H260.28V740.476H257.936V738.465H260.28V732.664H262.624ZM256.51 737.136C256.51 740.086 257.428 743.074 260.026 744.558L258.561 746.394C256.979 745.457 255.934 743.865 255.338 741.961C254.723 744.031 253.649 745.789 252.018 746.785L250.514 744.949C253.131 743.347 254.108 740.144 254.108 737.136V736.179H251.198V734.187H259.206V736.179H256.51V737.136ZM282.194 732.371V739.324H284.811V741.375H282.194V750.144H279.733V732.371H282.194ZM278.522 735.027V737.019H268.073V735.027H272.096V732.644H274.596V735.027H278.522ZM273.346 738.015C275.944 738.015 277.877 739.773 277.877 742.254C277.877 744.734 275.944 746.492 273.346 746.492C270.729 746.492 268.795 744.734 268.795 742.254C268.795 739.773 270.729 738.015 273.346 738.015ZM273.346 740.027C272.096 740.047 271.178 740.886 271.178 742.254C271.178 743.64 272.096 744.461 273.346 744.441C274.596 744.461 275.495 743.64 275.495 742.254C275.495 740.886 274.596 740.047 273.346 740.027ZM300.397 732.371V750.144H297.877V732.371H300.397ZM295.065 734.226C295.065 739.617 293.17 744.09 286.823 747.097L285.514 745.105C290.104 742.937 292.125 740.125 292.526 736.179H286.471V734.226H295.065Z" fill="#F6F6F6"/>
<rect x="25" y="605" width="380" height="80" rx="10" fill="#457BE5"/>
<path d="M158.192 637.371V644.187H160.711V646.238H158.192V655.105H155.692V637.371H158.192ZM153.446 639.187C153.426 644.5 151.356 649.109 145.379 652.039L143.973 650.125C148.182 648.015 150.438 645.183 150.907 641.219H144.989V639.187H153.446ZM167.938 640.164C167.938 642.312 169.188 644.383 172 645.261L170.672 647.195C168.788 646.57 167.469 645.359 166.708 643.797C165.936 645.594 164.559 647 162.528 647.683L161.18 645.73C164.149 644.734 165.418 642.371 165.438 639.929V638.308H167.938V640.164ZM175.555 637.371V641.531H177.958V643.601H175.555V647.918H173.055V637.371H175.555ZM169.735 648.269C173.407 648.269 175.731 649.539 175.731 651.707C175.731 653.894 173.407 655.144 169.735 655.144C165.985 655.144 163.641 653.894 163.641 651.707C163.641 649.539 165.985 648.269 169.735 648.269ZM169.735 650.222C167.391 650.222 166.122 650.73 166.141 651.707C166.122 652.722 167.391 653.191 169.735 653.191C172.04 653.191 173.27 652.722 173.27 651.707C173.27 650.73 172.04 650.222 169.735 650.222ZM194.149 637.371V655.144H191.805V637.371H194.149ZM190.438 637.761V654.363H188.075V648.504H185.555V646.492H188.075V644.07H185.887C185.057 647 183.26 649.48 179.93 651.453L178.465 649.695C182.069 647.566 183.651 644.978 183.993 641.492H179.5V639.48H186.473C186.473 640.369 186.415 641.228 186.317 642.058H188.075V637.761H190.438ZM206.258 638.797V640.828H202.704C202.821 642.635 204.11 644.373 206.766 645.125L205.594 647.078C203.602 646.502 202.215 645.34 201.434 643.836C200.653 645.486 199.227 646.775 197.157 647.39L195.907 645.457C198.651 644.646 199.969 642.791 200.125 640.828H196.551V638.797H206.258ZM202.665 646.648V649.617C204.042 649.549 205.418 649.441 206.708 649.265L206.883 651.062C203.133 651.765 199.129 651.746 196.141 651.765L195.809 649.734C197.108 649.734 198.602 649.734 200.165 649.695V646.648H202.665ZM212.567 644.383V646.472H210.145V655.144H207.645V637.371H210.145V644.383H212.567ZM232.899 637.371V646.316H230.418V644.949H226.356V643.054H230.418V641.492H226.551C225.448 644.168 222.909 645.877 218.973 646.726L218.133 644.695C222.206 643.885 224.09 642.205 224.422 640.066H219.129V638.054H227.176C227.176 638.592 227.137 639.109 227.059 639.597H230.418V637.371H232.899ZM232.899 646.961V651.824H223.602V652.996H233.29V654.969H221.102V649.988H230.399V648.914H221.083V646.961H232.899ZM250.575 637.371V655.144H248.211V637.371H250.575ZM246.942 637.664V654.324H244.598V645.476H242.254V643.465H244.598V637.664H246.942ZM240.829 642.136C240.829 645.086 241.747 648.074 244.344 649.558L242.879 651.394C241.297 650.457 240.252 648.865 239.657 646.961C239.042 649.031 237.967 650.789 236.336 651.785L234.833 649.949C237.45 648.347 238.426 645.144 238.426 642.136V641.179H235.516V639.187H243.524V641.179H240.829V642.136ZM266.512 637.371V644.324H269.129V646.375H266.512V655.144H264.051V637.371H266.512ZM262.84 640.027V642.019H252.391V640.027H256.415V637.644H258.915V640.027H262.84ZM257.665 643.015C260.262 643.015 262.196 644.773 262.196 647.254C262.196 649.734 260.262 651.492 257.665 651.492C255.047 651.492 253.114 649.734 253.114 647.254C253.114 644.773 255.047 643.015 257.665 643.015ZM257.665 645.027C256.415 645.047 255.497 645.886 255.497 647.254C255.497 648.64 256.415 649.461 257.665 649.441C258.915 649.461 259.813 648.64 259.813 647.254C259.813 645.886 258.915 645.047 257.665 645.027ZM284.715 637.371V655.144H282.196V637.371H284.715ZM279.383 639.226C279.383 644.617 277.489 649.09 271.141 652.097L269.833 650.105C274.422 647.937 276.444 645.125 276.844 641.179H270.79V639.226H279.383Z" fill="#F6F6F6"/>
<g clip-path="url(#clip0_44_1992)">
<path d="M392.406 66.4366C388.952 66.4366 386.188 63.6612 386.188 60.1919H381.728C381.728 63.6612 378.965 66.4366 375.51 66.4366C372.056 66.4366 369.292 63.6612 369.292 60.1919H364.833C364.833 63.6612 362.069 66.4366 358.614 66.4366C355.16 66.4366 352.396 63.6612 352.396 60.1919H347.937C347.937 63.6612 345.173 66.4366 341.718 66.4366C338.264 66.4366 335.501 63.6612 335.501 60.1919H331.04C331.04 63.6612 328.278 66.4366 324.823 66.4366C321.368 66.4366 318.604 63.6612 318.604 60.1919H314.145C314.145 63.6612 311.381 66.4366 307.927 66.4366C304.472 66.4366 301.708 63.6612 301.708 60.1919H297.249C297.249 63.6612 294.485 66.4366 291.031 66.4366C287.577 66.4366 284.813 63.6612 284.813 60.1919H280.353C280.353 63.6612 277.59 66.4366 274.135 66.4366C270.681 66.4366 267.917 63.6612 267.917 60.1919H263.458C263.458 63.6612 260.694 66.4366 257.239 66.4366C253.785 66.4366 251.022 63.6612 251.022 60.1919H246.562C246.562 63.6612 243.798 66.4366 240.343 66.4366C236.89 66.4366 234.126 63.6612 234.126 60.1919H229.666C229.666 63.6612 226.903 66.4366 223.448 66.4366C219.993 66.4366 217.229 63.6612 217.229 60.1919H212.77C212.77 63.6612 210.007 66.4366 206.552 66.4366C203.097 66.4366 200.334 63.6612 200.334 60.1919H195.874C195.874 63.6612 193.11 66.4366 189.657 66.4366C186.202 66.4366 183.438 63.6612 183.438 60.1919H178.978C178.978 63.6612 176.215 66.4366 172.761 66.4366C169.306 66.4366 166.542 63.6612 166.542 60.1919H162.083C162.083 63.6612 159.319 66.4366 155.864 66.4366C152.41 66.4366 149.647 63.6612 149.647 60.1919H145.187C145.187 63.6612 142.423 66.4366 138.969 66.4366C135.515 66.4366 132.751 63.6612 132.751 60.1919H128.291C128.291 63.6612 125.528 66.4366 122.073 66.4366C118.619 66.4366 115.855 63.6612 115.855 60.1919H111.395C111.395 63.6612 108.632 66.4366 105.177 66.4366C101.723 66.4366 98.959 63.6612 98.959 60.1919H94.4996C94.4996 63.6612 91.736 66.4366 88.2814 66.4366C84.8269 66.4366 82.0632 63.6612 82.0632 60.1919H77.6037C77.6037 63.6612 74.8401 66.4366 71.3856 66.4366C67.9311 66.4366 65.1674 63.6612 65.1674 60.1919H60.708C60.708 63.6612 57.9443 66.4366 54.4897 66.4366C51.0352 66.4366 48.2716 63.6612 48.2716 60.1919H43.8121C43.8121 63.6612 41.0485 66.4366 37.594 66.4366C34.1394 66.4366 31.3758 63.6612 31.3758 60.1919H26.9791V530.248H31.3758C31.3758 526.779 34.1394 524.004 37.594 524.004C41.0485 524.004 43.8121 526.779 43.8121 530.248H48.2716C48.2716 526.779 51.0352 524.004 54.4897 524.004C57.9443 524.004 60.708 526.779 60.708 530.248H65.1674C65.1674 526.779 67.9311 524.004 71.3856 524.004C74.8401 524.004 77.6037 526.779 77.6037 530.248H82.0632C82.0632 526.779 84.8269 524.004 88.2814 524.004C91.736 524.004 94.4996 526.779 94.4996 530.248H98.959C98.959 526.779 101.723 524.004 105.177 524.004C108.632 524.004 111.395 526.779 111.395 530.248H115.855C115.855 526.779 118.619 524.004 122.073 524.004C125.528 524.004 128.291 526.779 128.291 530.248H132.751C132.751 526.779 135.515 524.004 138.969 524.004C142.423 524.004 145.187 526.779 145.187 530.248H149.647C149.647 526.779 152.41 524.004 155.864 524.004C159.319 524.004 162.083 526.779 162.083 530.248H166.542C166.542 526.779 169.306 524.004 172.761 524.004C176.215 524.004 178.978 526.779 178.978 530.248H183.438C183.438 526.779 186.202 524.004 189.657 524.004C193.11 524.004 195.874 526.779 195.874 530.248H200.334C200.334 526.779 203.097 524.004 206.552 524.004C210.007 524.004 212.77 526.779 212.77 530.248H217.229C217.229 526.779 219.993 524.004 223.448 524.004C226.903 524.004 229.666 526.779 229.666 530.248H234.126C234.126 526.779 236.89 524.004 240.343 524.004C243.798 524.004 246.562 526.779 246.562 530.248H251.022C251.022 526.779 253.785 524.004 257.239 524.004C260.694 524.004 263.458 526.779 263.458 530.248H267.917C267.917 526.779 270.681 524.004 274.135 524.004C277.59 524.004 280.353 526.779 280.353 530.248H284.813C284.813 526.779 287.577 524.004 291.031 524.004C294.485 524.004 297.249 526.779 297.249 530.248H301.708C301.708 526.779 304.472 524.004 307.927 524.004C311.381 524.004 314.145 526.779 314.145 530.248H318.604C318.604 526.779 321.368 524.004 324.823 524.004C328.278 524.004 331.04 526.779 331.04 530.248H335.501C335.501 526.779 338.264 524.004 341.718 524.004C345.173 524.004 347.937 526.779 347.937 530.248H352.396C352.396 526.779 355.16 524.004 358.614 524.004C362.069 524.004 364.833 526.779 364.833 530.248H369.292C369.292 526.779 372.056 524.004 375.51 524.004C378.965 524.004 381.728 526.779 381.728 530.248H386.188C386.188 526.779 388.952 524.004 392.406 524.004C395.86 524.004 398.624 526.779 398.624 530.248H403.021V60.1919H398.624C398.624 63.6612 395.86 66.4366 392.406 66.4366Z" fill="white"/>
<mask id="mask0_44_1992" style="mask-type:luminance" maskUnits="userSpaceOnUse" x="25" y="58" width="380" height="476">
<path d="M405 58.2085H25V533.208H405V58.2085Z" fill="white"/>
<path d="M392.406 66.4366C388.952 66.4366 386.188 63.6612 386.188 60.1919H381.728C381.728 63.6612 378.965 66.4366 375.51 66.4366C372.056 66.4366 369.292 63.6612 369.292 60.1919H364.833C364.833 63.6612 362.069 66.4366 358.614 66.4366C355.16 66.4366 352.396 63.6612 352.396 60.1919H347.937C347.937 63.6612 345.173 66.4366 341.718 66.4366C338.264 66.4366 335.501 63.6612 335.501 60.1919H331.04C331.04 63.6612 328.278 66.4366 324.823 66.4366C321.368 66.4366 318.604 63.6612 318.604 60.1919H314.145C314.145 63.6612 311.381 66.4366 307.927 66.4366C304.472 66.4366 301.708 63.6612 301.708 60.1919H297.249C297.249 63.6612 294.485 66.4366 291.031 66.4366C287.577 66.4366 284.813 63.6612 284.813 60.1919H280.353C280.353 63.6612 277.59 66.4366 274.135 66.4366C270.681 66.4366 267.917 63.6612 267.917 60.1919H263.458C263.458 63.6612 260.694 66.4366 257.239 66.4366C253.785 66.4366 251.022 63.6612 251.022 60.1919H246.562C246.562 63.6612 243.798 66.4366 240.343 66.4366C236.89 66.4366 234.126 63.6612 234.126 60.1919H229.666C229.666 63.6612 226.903 66.4366 223.448 66.4366C219.993 66.4366 217.229 63.6612 217.229 60.1919H212.77C212.77 63.6612 210.007 66.4366 206.552 66.4366C203.097 66.4366 200.334 63.6612 200.334 60.1919H195.874C195.874 63.6612 193.11 66.4366 189.657 66.4366C186.202 66.4366 183.438 63.6612 183.438 60.1919H178.978C178.978 63.6612 176.215 66.4366 172.761 66.4366C169.306 66.4366 166.542 63.6612 166.542 60.1919H162.083C162.083 63.6612 159.319 66.4366 155.864 66.4366C152.41 66.4366 149.647 63.6612 149.647 60.1919H145.187C145.187 63.6612 142.423 66.4366 138.969 66.4366C135.515 66.4366 132.751 63.6612 132.751 60.1919H128.291C128.291 63.6612 125.528 66.4366 122.073 66.4366C118.619 66.4366 115.855 63.6612 115.855 60.1919H111.395C111.395 63.6612 108.632 66.4366 105.177 66.4366C101.723 66.4366 98.959 63.6612 98.959 60.1919H94.4996C94.4996 63.6612 91.736 66.4366 88.2814 66.4366C84.8269 66.4366 82.0632 63.6612 82.0632 60.1919H77.6037C77.6037 63.6612 74.8401 66.4366 71.3856 66.4366C67.9311 66.4366 65.1674 63.6612 65.1674 60.1919H60.708C60.708 63.6612 57.9443 66.4366 54.4897 66.4366C51.0352 66.4366 48.2716 63.6612 48.2716 60.1919H43.8121C43.8121 63.6612 41.0485 66.4366 37.594 66.4366C34.1394 66.4366 31.3758 63.6612 31.3758 60.1919H26.9791V530.248H31.3758C31.3758 526.779 34.1394 524.004 37.594 524.004C41.0485 524.004 43.8121 526.779 43.8121 530.248H48.2716C48.2716 526.779 51.0352 524.004 54.4897 524.004C57.9443 524.004 60.708 526.779 60.708 530.248H65.1674C65.1674 526.779 67.9311 524.004 71.3856 524.004C74.8401 524.004 77.6037 526.779 77.6037 530.248H82.0632C82.0632 526.779 84.8269 524.004 88.2814 524.004C91.736 524.004 94.4996 526.779 94.4996 530.248H98.959C98.959 526.779 101.723 524.004 105.177 524.004C108.632 524.004 111.395 526.779 111.395 530.248H115.855C115.855 526.779 118.619 524.004 122.073 524.004C125.528 524.004 128.291 526.779 128.291 530.248H132.751C132.751 526.779 135.515 524.004 138.969 524.004C142.423 524.004 145.187 526.779 145.187 530.248H149.647C149.647 526.779 152.41 524.004 155.864 524.004C159.319 524.004 162.083 526.779 162.083 530.248H166.542C166.542 526.779 169.306 524.004 172.761 524.004C176.215 524.004 178.978 526.779 178.978 530.248H183.438C183.438 526.779 186.202 524.004 189.657 524.004C193.11 524.004 195.874 526.779 195.874 530.248H200.334C200.334 526.779 203.097 524.004 206.552 524.004C210.007 524.004 212.77 526.779 212.77 530.248H217.229C217.229 526.779 219.993 524.004 223.448 524.004C226.903 524.004 229.666 526.779 229.666 530.248H234.126C234.126 526.779 236.89 524.004 240.343 524.004C243.798 524.004 246.562 526.779 246.562 530.248H251.022C251.022 526.779 253.785 524.004 257.239 524.004C260.694 524.004 263.458 526.779 263.458 530.248H267.917C267.917 526.779 270.681 524.004 274.135 524.004C277.59 524.004 280.353 526.779 280.353 530.248H284.813C284.813 526.779 287.577 524.004 291.031 524.004C294.485 524.004 297.249 526.779 297.249 530.248H301.708C301.708 526.779 304.472 524.004 307.927 524.004C311.381 524.004 314.145 526.779 314.145 530.248H318.604C318.604 526.779 321.368 524.004 324.823 524.004C328.278 524.004 331.04 526.779 331.04 530.248H335.501C335.501 526.779 338.264 524.004 341.718 524.004C345.173 524.004 347.937 526.779 347.937 530.248H352.396C352.396 526.779 355.16 524.004 358.614 524.004C362.069 524.004 364.833 526.779 364.833 530.248H369.292C369.292 526.779 372.056 524.004 375.51 524.004C378.965 524.004 381.728 526.779 381.728 530.248H386.188C386.188 526.779 388.952 524.004 392.406 524.004C395.86 524.004 398.624 526.779 398.624 530.248H403.021V60.1919H398.624C398.624 63.6612 395.86 66.4366 392.406 66.4366Z" fill="black"/>
</mask>
<g mask="url(#mask0_44_1992)">
<path d="M392.406 66.4366C388.952 66.4366 386.188 63.6612 386.188 60.1919H381.728C381.728 63.6612 378.965 66.4366 375.51 66.4366C372.056 66.4366 369.292 63.6612 369.292 60.1919H364.833C364.833 63.6612 362.069 66.4366 358.614 66.4366C355.16 66.4366 352.396 63.6612 352.396 60.1919H347.937C347.937 63.6612 345.173 66.4366 341.718 66.4366C338.264 66.4366 335.501 63.6612 335.501 60.1919H331.04C331.04 63.6612 328.278 66.4366 324.823 66.4366C321.368 66.4366 318.604 63.6612 318.604 60.1919H314.145C314.145 63.6612 311.381 66.4366 307.927 66.4366C304.472 66.4366 301.708 63.6612 301.708 60.1919H297.249C297.249 63.6612 294.485 66.4366 291.031 66.4366C287.577 66.4366 284.813 63.6612 284.813 60.1919H280.353C280.353 63.6612 277.59 66.4366 274.135 66.4366C270.681 66.4366 267.917 63.6612 267.917 60.1919H263.458C263.458 63.6612 260.694 66.4366 257.239 66.4366C253.785 66.4366 251.022 63.6612 251.022 60.1919H246.562C246.562 63.6612 243.798 66.4366 240.343 66.4366C236.89 66.4366 234.126 63.6612 234.126 60.1919H229.666C229.666 63.6612 226.903 66.4366 223.448 66.4366C219.993 66.4366 217.229 63.6612 217.229 60.1919H212.77C212.77 63.6612 210.007 66.4366 206.552 66.4366C203.097 66.4366 200.334 63.6612 200.334 60.1919H195.874C195.874 63.6612 193.11 66.4366 189.657 66.4366C186.202 66.4366 183.438 63.6612 183.438 60.1919H178.978C178.978 63.6612 176.215 66.4366 172.761 66.4366C169.306 66.4366 166.542 63.6612 166.542 60.1919H162.083C162.083 63.6612 159.319 66.4366 155.864 66.4366C152.41 66.4366 149.647 63.6612 149.647 60.1919H145.187C145.187 63.6612 142.423 66.4366 138.969 66.4366C135.515 66.4366 132.751 63.6612 132.751 60.1919H128.291C128.291 63.6612 125.528 66.4366 122.073 66.4366C118.619 66.4366 115.855 63.6612 115.855 60.1919H111.395C111.395 63.6612 108.632 66.4366 105.177 66.4366C101.723 66.4366 98.959 63.6612 98.959 60.1919H94.4996C94.4996 63.6612 91.736 66.4366 88.2814 66.4366C84.8269 66.4366 82.0632 63.6612 82.0632 60.1919H77.6037C77.6037 63.6612 74.8401 66.4366 71.3856 66.4366C67.9311 66.4366 65.1674 63.6612 65.1674 60.1919H60.708C60.708 63.6612 57.9443 66.4366 54.4897 66.4366C51.0352 66.4366 48.2716 63.6612 48.2716 60.1919H43.8121C43.8121 63.6612 41.0485 66.4366 37.594 66.4366C34.1394 66.4366 31.3758 63.6612 31.3758 60.1919H26.9791V530.248H31.3758C31.3758 526.779 34.1394 524.004 37.594 524.004C41.0485 524.004 43.8121 526.779 43.8121 530.248H48.2716C48.2716 526.779 51.0352 524.004 54.4897 524.004C57.9443 524.004 60.708 526.779 60.708 530.248H65.1674C65.1674 526.779 67.9311 524.004 71.3856 524.004C74.8401 524.004 77.6037 526.779 77.6037 530.248H82.0632C82.0632 526.779 84.8269 524.004 88.2814 524.004C91.736 524.004 94.4996 526.779 94.4996 530.248H98.959C98.959 526.779 101.723 524.004 105.177 524.004C108.632 524.004 111.395 526.779 111.395 530.248H115.855C115.855 526.779 118.619 524.004 122.073 524.004C125.528 524.004 128.291 526.779 128.291 530.248H132.751C132.751 526.779 135.515 524.004 138.969 524.004C142.423 524.004 145.187 526.779 145.187 530.248H149.647C149.647 526.779 152.41 524.004 155.864 524.004C159.319 524.004 162.083 526.779 162.083 530.248H166.542C166.542 526.779 169.306 524.004 172.761 524.004C176.215 524.004 178.978 526.779 178.978 530.248H183.438C183.438 526.779 186.202 524.004 189.657 524.004C193.11 524.004 195.874 526.779 195.874 530.248H200.334C200.334 526.779 203.097 524.004 206.552 524.004C210.007 524.004 212.77 526.779 212.77 530.248H217.229C217.229 526.779 219.993 524.004 223.448 524.004C226.903 524.004 229.666 526.779 229.666 530.248H234.126C234.126 526.779 236.89 524.004 240.343 524.004C243.798 524.004 246.562 526.779 246.562 530.248H251.022C251.022 526.779 253.785 524.004 257.239 524.004C260.694 524.004 263.458 526.779 263.458 530.248H267.917C267.917 526.779 270.681 524.004 274.135 524.004C277.59 524.004 280.353 526.779 280.353 530.248H284.813C284.813 526.779 287.577 524.004 291.031 524.004C294.485 524.004 297.249 526.779 297.249 530.248H301.708C301.708 526.779 304.472 524.004 307.927 524.004C311.381 524.004 314.145 526.779 314.145 530.248H318.604C318.604 526.779 321.368 524.004 324.823 524.004C328.278 524.004 331.04 526.779 331.04 530.248H335.501C335.501 526.779 338.264 524.004 341.718 524.004C345.173 524.004 347.937 526.779 347.937 530.248H352.396C352.396 526.779 355.16 524.004 358.614 524.004C362.069 524.004 364.833 526.779 364.833 530.248H369.292C369.292 526.779 372.056 524.004 375.51 524.004C378.965 524.004 381.728 526.779 381.728 530.248H386.188C386.188 526.779 388.952 524.004 392.406 524.004C395.86 524.004 398.624 526.779 398.624 530.248H403.021V60.1919H398.624C398.624 63.6612 395.86 66.4366 392.406 66.4366Z" stroke="#666666" stroke-width="3"/>
</g>
</g>
<rect width="81" height="20" transform="translate(175 92)" fill="#FAF3D4"/>
<path d="M178.438 102.986C179.536 103.004 181.498 102.95 182.83 102.626L183.046 104.264C181.552 104.588 178.528 104.786 176.368 104.66V94.238H182.47V95.912H178.438V98.486H182.02V100.16H178.438V102.986ZM184.414 100.088H182.758V98.396H184.414V92.672H186.394V107.684H184.414V100.088ZM189.634 108.422H187.618V92.384H189.634V108.422ZM205.554 106.334H191.064V104.66H205.554V106.334ZM205.248 99.764L204.186 101.402C201.99 100.898 199.218 99.224 198.3 97.118C197.472 99.278 194.61 100.988 192.396 101.474L191.406 99.764C194.034 99.386 197.22 97.262 197.22 94.418V93.356H199.416V94.418C199.416 97.244 202.8 99.35 205.248 99.764ZM218.433 98.756H210.081V100.502H218.973V102.158H207.993V93.644H218.811V95.3H210.081V97.1H218.433V98.756ZM220.629 104.75V106.406H206.139V104.75H220.629ZM240.237 98.648H237.987V102.536H235.863V92.384H237.987V96.956H240.237V98.648ZM227.421 103.31H237.987V108.44H235.881V104.984H227.421V103.31ZM234.621 96.632H225.315V94.994H234.621V96.632ZM227.637 94.292V92.654H232.389V94.292H227.637ZM233.811 99.818C233.811 101.474 232.191 102.608 230.013 102.608C227.817 102.608 226.161 101.474 226.161 99.818C226.161 98.162 227.799 97.046 230.013 97.046C232.191 97.046 233.811 98.162 233.811 99.818ZM228.267 99.818C228.267 100.52 229.059 101.006 230.013 101.006C230.949 101.006 231.741 100.52 231.741 99.818C231.741 99.116 230.949 98.648 230.013 98.648C229.041 98.648 228.267 99.116 228.267 99.818ZM249.642 95.876C249.642 97.604 247.968 98.828 245.628 98.828C243.288 98.828 241.56 97.604 241.56 95.84C241.56 94.148 243.288 92.888 245.628 92.888C247.968 92.888 249.642 94.148 249.642 95.876ZM248.886 103.166V101.654H251.946V92.384H254.052V104.786H251.946V103.166H248.886ZM254.304 107.99H242.532V103.256H244.638V106.316H254.304V107.99ZM247.266 104.012H245.178V101.15C243.504 101.204 241.938 101.222 240.732 101.222C240.642 100.682 240.552 100.106 240.444 99.566C244.386 99.566 248.418 99.368 250.668 99.08L250.794 100.628C249.696 100.808 248.508 100.916 247.266 101.006V104.012ZM247.554 95.876C247.554 95.174 246.816 94.454 245.628 94.454C244.404 94.454 243.684 95.174 243.684 95.876C243.684 96.578 244.404 97.244 245.628 97.244C246.816 97.244 247.554 96.578 247.554 95.876Z" fill="#333333"/>
<path d="M82.875 154.25V155.438H74.5312V154.25H77.9688V152.766H79.4531V154.25H82.875ZM78.7031 156.062C80.7188 156.078 82.0938 157.078 82.0938 158.609C82.0938 160.141 80.7188 161.156 78.7031 161.156C76.6719 161.156 75.2969 160.141 75.2969 158.609C75.2969 157.078 76.6719 156.078 78.7031 156.062ZM78.7031 157.203C77.5156 157.203 76.7188 157.75 76.7344 158.609C76.7188 159.484 77.5156 160 78.7031 160C79.8906 160 80.6875 159.484 80.7031 158.609C80.6875 157.75 79.8906 157.203 78.7031 157.203ZM85.5156 152.828V156.625H87.5469V157.859H85.5156V161.578H84.0312V152.828H85.5156ZM85.5156 162.297V166.828H84.0312V163.5H76.2656V162.297H85.5156ZM92.625 155.516C92.625 157.047 93.6094 158.594 95.4219 159.281L94.6406 160.422C93.3359 159.922 92.4219 158.969 91.9219 157.812C91.4062 159.117 90.4453 160.25 89.0938 160.828L88.2812 159.672C90.1719 158.844 91.1875 157.078 91.1875 155.516V153.703H92.625V155.516ZM100.281 152.844V161.453H98.875V157.703H97.2344V161.016H95.8594V153.094H97.2344V156.484H98.875V152.844H100.281ZM95.5938 161.719C98.5156 161.719 100.344 162.672 100.359 164.266C100.344 165.859 98.5156 166.812 95.5938 166.797C92.6719 166.812 90.8438 165.859 90.8594 164.266C90.8438 162.672 92.6719 161.719 95.5938 161.719ZM95.5938 162.859C93.5625 162.859 92.3125 163.375 92.3281 164.266C92.3125 165.156 93.5625 165.672 95.5938 165.656C97.625 165.672 98.8594 165.156 98.875 164.266C98.8594 163.375 97.625 162.859 95.5938 162.859ZM113.844 152.828V161.094H112.359V159.016H109.312V160.156H102.812V153.875H109.312V155.031H112.359V152.828H113.844ZM104.281 155.062V158.969H107.859V155.062H104.281ZM109.156 161.484C112.094 161.484 113.891 162.453 113.891 164.156C113.891 165.844 112.094 166.812 109.156 166.797C106.219 166.812 104.406 165.844 104.422 164.156C104.406 162.453 106.219 161.484 109.156 161.484ZM109.156 162.625C107.109 162.641 105.891 163.172 105.891 164.156C105.891 165.094 107.109 165.656 109.156 165.656C111.203 165.656 112.422 165.094 112.422 164.156C112.422 163.172 111.203 162.641 109.156 162.625ZM109.312 157.812H112.359V156.219H109.312V157.812Z" fill="#333333"/>
<path d="M312.689 159.976H311.281V152.136H312.689V159.976ZM312.689 165.928H303.681V160.776H312.689V165.928ZM311.281 164.808V161.896H305.089V164.808H311.281ZM302.081 153.064H308.497C308.337 156.824 305.761 159.384 302.161 160.344L301.441 159.208C304.017 158.696 306.545 156.664 306.945 154.264H302.081V153.064ZM320.181 158.632H316.949V161.528C318.709 161.56 320.261 161.464 321.445 161.176L321.605 162.312C320.197 162.616 318.693 162.728 315.541 162.712V153.816H320.853V154.968H316.949V157.512H320.181V158.632ZM322.821 158.648H321.061V157.496H322.821V152.44H324.165V165.432H322.821V158.648ZM326.885 166.12H325.525V152.136H326.885V166.12ZM341.161 159.224L340.393 160.344C338.201 159.72 335.881 157.944 335.225 156.376C334.665 157.96 332.329 159.736 330.057 160.328L329.337 159.176C331.625 158.776 334.505 156.744 334.505 154.392V153.304H335.961V154.392C335.961 156.728 339.017 158.808 341.161 159.224ZM341.545 164.232H328.921V163.08H341.545V164.232ZM353.42 157.608H345.692V159.592H353.868V160.76H344.284V153.464H353.74V154.616H345.692V156.488H353.42V157.608ZM355.388 164.344H342.764V163.192H355.388V164.344Z" fill="#333333"/>
<path d="M86.1875 190.828V197.953H84.7031V196.609H81.1562V195.453H84.7031V193.938H81.3281C80.4609 196.109 78.3516 197.539 75.25 198.266L74.7344 197.047C78.0938 196.305 79.9141 194.75 80.1562 192.688H75.4688V191.469H81.7812C81.7812 191.922 81.7422 192.352 81.6719 192.766H84.7031V190.828H86.1875ZM86.1875 198.547V202.094H78.5312V203.5H86.6094V204.688H77.0625V200.969H84.7031V199.719H77.0312V198.547H86.1875ZM100.359 190.828V204.828H98.9375V190.828H100.359ZM97.5156 191.125V204.125H96.1094V197H93.9375V195.781H96.1094V191.125H97.5156ZM92.5625 194.734C92.5625 197.125 93.5312 199.516 95.5 200.656L94.6094 201.75C93.2734 200.953 92.3516 199.539 91.875 197.844C91.3672 199.672 90.4141 201.227 89.0469 202.078L88.1406 200.969C90.125 199.766 91.1406 197.219 91.1406 194.734V193.609H88.5625V192.406H94.9688V193.609H92.5625V194.734ZM114.156 190.828V204.828H112.734V197.656H110.938V204.109H109.547V191.109H110.938V196.438H112.734V190.828H114.156ZM104.312 192.484V199.953C105.609 199.945 107.023 199.844 108.609 199.531L108.766 200.828C106.844 201.172 105.234 201.266 103.734 201.266H102.828V192.484H104.312ZM127.672 199.812V204.828H126.188V200.984H118.188V199.812H127.672ZM127.672 190.828V199.078H126.188V197.156H122.734C122.086 197.922 121.062 198.383 119.875 198.375C117.766 198.391 116.203 196.984 116.203 194.984C116.203 193.016 117.766 191.594 119.875 191.609C121.062 191.602 122.078 192.062 122.734 192.828H126.188V190.828H127.672ZM119.875 192.859C118.562 192.859 117.625 193.734 117.625 194.984C117.625 196.266 118.562 197.125 119.875 197.125C121.141 197.125 122.094 196.266 122.094 194.984C122.094 193.734 121.141 192.859 119.875 192.859ZM123.391 195.938H126.188V194.047H123.391C123.469 194.344 123.516 194.656 123.516 194.984C123.516 195.32 123.469 195.641 123.391 195.938Z" fill="#333333"/>
<path d="M220.361 196.976H218.953V189.136H220.361V196.976ZM220.361 202.928H211.353V197.776H220.361V202.928ZM218.953 201.808V198.896H212.761V201.808H218.953ZM209.753 190.064H216.169C216.009 193.824 213.433 196.384 209.833 197.344L209.113 196.208C211.689 195.696 214.217 193.664 214.617 191.264H209.753V190.064ZM227.853 195.632H224.621V198.528C226.381 198.56 227.933 198.464 229.117 198.176L229.277 199.312C227.869 199.616 226.365 199.728 223.213 199.712V190.816H228.525V191.968H224.621V194.512H227.853V195.632ZM230.493 195.648H228.733V194.496H230.493V189.44H231.837V202.432H230.493V195.648ZM234.557 203.12H233.197V189.136H234.557V203.12ZM248.832 196.224L248.064 197.344C245.872 196.72 243.552 194.944 242.896 193.376C242.336 194.96 240 196.736 237.728 197.328L237.008 196.176C239.296 195.776 242.176 193.744 242.176 191.392V190.304H243.632V191.392C243.632 193.728 246.688 195.808 248.832 196.224ZM249.216 201.232H236.592V200.08H249.216V201.232ZM261.092 194.608H253.364V196.592H261.54V197.76H251.956V190.464H261.412V191.616H253.364V193.488H261.092V194.608ZM263.06 201.344H250.436V200.192H263.06V201.344ZM274.456 189.136H275.848V203.12H274.456V189.136ZM272.44 193.552C272.44 195.488 270.808 196.736 268.776 196.736C266.712 196.736 265.128 195.44 265.128 193.552C265.128 191.616 266.728 190.256 268.776 190.256C270.84 190.256 272.44 191.552 272.44 193.552ZM271.048 193.536C271.048 192.256 270.04 191.44 268.776 191.44C267.544 191.44 266.536 192.32 266.536 193.536C266.536 194.736 267.544 195.552 268.776 195.552C269.992 195.552 271.048 194.752 271.048 193.536ZM273.704 199.584C272.424 199.744 270.36 199.872 268.584 199.968C267 200.048 265.528 200.08 264.408 200.096L264.184 198.88C265.528 198.88 267.16 198.864 268.808 198.784C270.792 198.704 272.44 198.592 273.56 198.464L273.704 199.584ZM284.423 201.392V191.984L282.471 192.416V191.6L285.063 190.4H285.831V201.392H284.423ZM288.554 201.328V200.496L291.018 197.936C292.538 196.352 293.594 195.136 293.594 193.632C293.594 192.24 292.922 191.568 291.418 191.568C290.522 191.568 289.658 192 289.034 192.416L288.698 191.328C289.37 190.88 290.474 190.368 291.69 190.368C293.898 190.368 295.082 191.568 295.082 193.488C295.082 195.376 293.85 196.752 292.09 198.528L290.49 200.144H295.29V201.328H288.554ZM308.829 203.104H298.765V200.08H306.893V199.136H298.765V198.08H308.301V201.056H300.189V202.032H308.829V203.104ZM304.589 191.776C304.589 193.232 303.085 194.08 301.117 194.08C299.149 194.08 297.629 193.232 297.629 191.76C297.629 190.336 299.149 189.456 301.117 189.456C303.085 189.456 304.589 190.304 304.589 191.776ZM308.301 197.52H306.909V196.96H303.917V195.952H306.909V189.136H308.301V197.52ZM301.757 197.536H300.349V195.824C299.085 195.856 297.965 195.888 296.813 195.904L296.605 194.736C298.221 194.736 299.709 194.72 301.245 194.656C303.037 194.576 304.413 194.496 305.741 194.336L305.869 195.392C304.893 195.52 303.261 195.648 301.757 195.744V197.536ZM303.165 191.776C303.165 190.992 302.333 190.56 301.117 190.56C299.933 190.56 299.085 190.992 299.085 191.776C299.085 192.56 299.949 192.96 301.117 192.96C302.285 192.96 303.165 192.56 303.165 191.776ZM327.66 194.368H325.58V197.824H324.156V189.136H325.58V193.2H327.66V194.368ZM320.764 190.528H316.7V189.376H320.764V190.528ZM322.748 192.56H314.7V191.424H322.748V192.56ZM321.948 195.488C321.948 196.864 320.556 197.808 318.716 197.808C316.86 197.808 315.484 196.88 315.484 195.488C315.484 194.064 316.844 193.152 318.716 193.152C320.556 193.152 321.948 194.064 321.948 195.488ZM320.54 195.488C320.54 194.736 319.692 194.24 318.716 194.24C317.724 194.24 316.876 194.736 316.876 195.488C316.876 196.224 317.74 196.72 318.716 196.72C319.692 196.72 320.54 196.224 320.54 195.488ZM316.492 198.56H325.58V203.136H324.172V199.712H316.492V198.56ZM336.784 192.4C336.784 193.984 335.232 194.976 333.072 194.976C330.928 194.976 329.36 194 329.36 192.384C329.36 190.816 330.928 189.792 333.072 189.792C335.232 189.792 336.784 190.816 336.784 192.4ZM340.192 199.888H338.8V198.4H336.048V197.344H338.8V189.136H340.192V199.888ZM340.464 202.768H330.32V198.688H331.728V201.616H340.464V202.768ZM333.904 199.28H332.48V196.8C331.12 196.848 329.904 196.864 328.672 196.896L328.448 195.728C330.064 195.728 331.568 195.712 333.104 195.648C334.896 195.568 336.272 195.472 337.584 195.328L337.68 196.384C336.752 196.528 335.296 196.64 333.904 196.72V199.28ZM335.264 192.4C335.264 191.568 334.4 190.928 333.072 190.928C331.744 190.928 330.88 191.568 330.88 192.4C330.88 193.232 331.744 193.84 333.072 193.84C334.4 193.84 335.264 193.232 335.264 192.4ZM354.019 203.12H352.595V189.136H354.019V203.12ZM349.907 199.648H343.155V190.336H344.563V193.824H348.499V190.32H349.907V199.648ZM348.499 198.512V194.976H344.563V198.512H348.499Z" fill="#333333"/>
<path d="M86.0938 228.828V242.828H84.6094V228.828H86.0938ZM74.5938 239.016C75.7422 239.008 77.0625 239 78.4375 238.953V237.562C76.7969 237.352 75.7344 236.391 75.75 235.016C75.7344 233.438 77.1094 232.391 79.1406 232.391C81.1875 232.391 82.5938 233.438 82.5938 235.016C82.5938 236.375 81.5312 237.328 79.9062 237.547V238.906C81.2031 238.852 82.5156 238.75 83.75 238.594L83.8594 239.703C80.75 240.219 77.3594 240.25 74.7969 240.25L74.5938 239.016ZM83.4375 230.5V231.688H74.8906V230.5H78.4375V228.859H79.9219V230.5H83.4375ZM79.1406 233.547C77.9688 233.547 77.1406 234.125 77.1562 235.016C77.1406 235.906 77.9688 236.453 79.1406 236.453C80.3438 236.453 81.1719 235.906 81.1719 235.016C81.1719 234.125 80.3438 233.547 79.1406 233.547ZM99.9375 228.828V242.859H98.4531V228.828H99.9375ZM90.6094 230V233.594H94.375V230H95.8438V239.5H89.125V230H90.6094ZM90.6094 238.281H94.375V234.766H90.6094V238.281ZM113.172 228.844V231.875H115.219V233.109H113.172V236.141H111.688V228.844H113.172ZM104.297 229.469V234.312C106.195 234.297 108.18 234.164 110.328 233.719L110.516 234.953C108.156 235.391 106.016 235.547 103.953 235.547H102.812V229.469H104.297ZM105.641 236.844V238.562H111.688V236.844H113.172V242.656H104.188V236.844H105.641ZM105.641 241.453H111.688V239.766H105.641V241.453ZM128.797 237.062V238.234H123.078V242.828H121.625V238.234H115.984V237.062H128.797ZM119.047 229.391V231.219H125.703V229.391H127.188V235.469H117.578V229.391H119.047ZM119.047 234.281H125.703V232.406H119.047V234.281ZM133.797 229.297C135.906 229.312 137.453 230.609 137.469 232.438C137.453 234.281 135.906 235.562 133.797 235.562C131.672 235.562 130.109 234.281 130.109 232.438C130.109 230.609 131.672 229.312 133.797 229.297ZM133.797 230.547C132.5 230.531 131.547 231.297 131.562 232.438C131.547 233.594 132.5 234.359 133.797 234.359C135.078 234.359 136.031 233.594 136.031 232.438C136.031 231.297 135.078 230.531 133.797 230.547ZM141.438 228.828V235.953H139.953V228.828H141.438ZM141.438 236.594V240.125H133.719V241.469H141.906V242.656H132.281V239.016H139.969V237.781H132.234V236.594H141.438Z" fill="#333333"/>
<path d="M275.234 242V240.75L279.156 236.797C280.391 235.5 281.016 234.781 281.016 233.797C281.016 232.688 280.109 231.969 278.922 231.969C277.672 231.969 276.859 232.766 276.859 233.969H275.234C275.219 231.906 276.797 230.531 278.953 230.531C281.141 230.531 282.641 231.906 282.656 233.75C282.641 235.016 282.047 236.016 279.922 238.109L277.625 240.438V240.531H282.844V242H275.234ZM288.688 242.156C286.062 242.156 284.531 240.047 284.531 236.344C284.531 232.672 286.094 230.531 288.688 230.531C291.281 230.531 292.844 232.672 292.844 236.344C292.844 240.047 291.297 242.156 288.688 242.156ZM288.688 240.672C290.219 240.672 291.125 239.172 291.125 236.344C291.125 233.531 290.203 231.984 288.688 231.984C287.172 231.984 286.25 233.531 286.25 236.344C286.25 239.172 287.156 240.672 288.688 240.672ZM294.625 242V240.75L298.547 236.797C299.781 235.5 300.406 234.781 300.406 233.797C300.406 232.688 299.5 231.969 298.312 231.969C297.062 231.969 296.25 232.766 296.25 233.969H294.625C294.609 231.906 296.188 230.531 298.344 230.531C300.531 230.531 302.031 231.906 302.047 233.75C302.031 235.016 301.438 236.016 299.312 238.109L297.016 240.438V240.531H302.234V242H294.625ZM303.641 239.797V238.406L308.641 230.688H310.766V238.344H312.312V239.797H310.766V242H309.141V239.797H303.641ZM305.453 238.344H309.141V232.734H309.016L305.453 238.25V238.344ZM314.734 242.109C314.125 242.109 313.609 241.609 313.625 241C313.609 240.391 314.125 239.891 314.734 239.891C315.328 239.891 315.844 240.391 315.844 241C315.844 241.609 315.328 242.109 314.734 242.109ZM320.766 230.688V242H319.031V232.406H318.969L316.266 234.172V232.531L319.078 230.688H320.766ZM323.641 242V240.75L327.562 236.797C328.797 235.5 329.422 234.781 329.422 233.797C329.422 232.688 328.516 231.969 327.328 231.969C326.078 231.969 325.266 232.766 325.266 233.969H323.641C323.625 231.906 325.203 230.531 327.359 230.531C329.547 230.531 331.047 231.906 331.062 233.75C331.047 235.016 330.453 236.016 328.328 238.109L326.031 240.438V240.531H331.25V242H323.641ZM334.266 242.109C333.656 242.109 333.141 241.609 333.156 241C333.141 240.391 333.656 239.891 334.266 239.891C334.859 239.891 335.375 240.391 335.375 241C335.375 241.609 334.859 242.109 334.266 242.109ZM337.375 242V240.75L341.297 236.797C342.531 235.5 343.156 234.781 343.156 233.797C343.156 232.688 342.25 231.969 341.062 231.969C339.812 231.969 339 232.766 339 233.969H337.375C337.359 231.906 338.938 230.531 341.094 230.531C343.281 230.531 344.781 231.906 344.797 233.75C344.781 235.016 344.188 236.016 342.062 238.109L339.766 240.438V240.531H344.984V242H337.375ZM350.828 242.156C348.203 242.156 346.672 240.047 346.672 236.344C346.672 232.672 348.234 230.531 350.828 230.531C353.422 230.531 354.984 232.672 354.984 236.344C354.984 240.047 353.438 242.156 350.828 242.156ZM350.828 240.672C352.359 240.672 353.266 239.172 353.266 236.344C353.266 233.531 352.344 231.984 350.828 231.984C349.312 231.984 348.391 233.531 348.391 236.344C348.391 239.172 349.297 240.672 350.828 240.672Z" fill="#333333"/>
<path d="M78.3906 288.469C80.2344 288.453 81.6562 289.523 81.9688 291.094H84.7031V287.828H86.1875V295.344H84.7031V292.312H81.9844C81.6797 293.922 80.25 295 78.3906 295C76.25 295 74.7188 293.656 74.7188 291.719C74.7188 289.812 76.25 288.453 78.3906 288.469ZM78.3906 289.703C77.0625 289.703 76.1406 290.516 76.1406 291.719C76.1406 292.922 77.0625 293.75 78.3906 293.75C79.6875 293.75 80.6094 292.922 80.6094 291.719C80.6094 290.516 79.6875 289.703 78.3906 289.703ZM78.5312 296.016V297.641H84.7031V296.016H86.1875V301.656H77.0625V296.016H78.5312ZM78.5312 300.438H84.7031V298.812H78.5312V300.438ZM92.5312 292.125C92.5312 294.328 93.5469 296.578 95.4844 297.609L94.6562 298.703C93.3047 297.984 92.3594 296.641 91.8594 295.047C91.3516 296.758 90.4141 298.227 89.0625 299.031L88.1875 297.906C90.125 296.781 91.125 294.391 91.1406 292.125V291.562H88.6094V290.344H91.1406V288.328H92.5312V290.344H95.0156V291.562H92.5312V292.125ZM100.359 287.828V301.828H98.9375V287.828H100.359ZM97.5156 288.125V301.125H96.1094V294.516H94.0938V293.281H96.1094V288.125H97.5156ZM113.844 287.828V296.094H112.359V294.016H109.312V295.156H102.812V288.875H109.312V290.031H112.359V287.828H113.844ZM104.281 290.062V293.969H107.859V290.062H104.281ZM109.156 296.484C112.094 296.484 113.891 297.453 113.891 299.156C113.891 300.844 112.094 301.812 109.156 301.797C106.219 301.812 104.406 300.844 104.422 299.156C104.406 297.453 106.219 296.484 109.156 296.484ZM109.156 297.625C107.109 297.641 105.891 298.172 105.891 299.156C105.891 300.094 107.109 300.656 109.156 300.656C111.203 300.656 112.422 300.094 112.422 299.156C112.422 298.172 111.203 297.641 109.156 297.625ZM109.312 292.812H112.359V291.219H109.312V292.812Z" fill="#333333"/>
<path d="M337.234 301.156C334.609 301.156 333.078 299.047 333.078 295.344C333.078 291.672 334.641 289.531 337.234 289.531C339.828 289.531 341.391 291.672 341.391 295.344C341.391 299.047 339.844 301.156 337.234 301.156ZM337.234 299.672C338.766 299.672 339.672 298.172 339.672 295.344C339.672 292.531 338.75 290.984 337.234 290.984C335.719 290.984 334.797 292.531 334.797 295.344C334.797 298.172 335.703 299.672 337.234 299.672ZM354.328 288.344V298.953H352.844V297.609H350.031V296.562H352.844V288.344H354.328ZM354.672 300.828V302.031H344.562V297.922H346.031V300.828H354.672ZM342.625 294.734C345.219 294.719 348.703 294.688 351.688 294.312L351.781 295.375C350.586 295.57 349.328 295.703 348.094 295.781V298.516H346.609V295.859C345.25 295.922 343.945 295.93 342.812 295.922L342.625 294.734ZM347.203 288.875C349.25 288.875 350.672 289.859 350.672 291.344C350.672 292.828 349.25 293.781 347.203 293.781C345.125 293.781 343.719 292.828 343.719 291.344C343.719 289.859 345.125 288.875 347.203 288.875ZM347.203 289.984C345.953 289.969 345.109 290.5 345.125 291.344C345.109 292.172 345.953 292.688 347.203 292.688C348.406 292.688 349.25 292.172 349.266 291.344C349.25 290.5 348.406 289.969 347.203 289.984Z" fill="#333333"/>
<path d="M86.5312 325.828V339.828H85.1094V332.594H83.2969V339.109H81.9375V326.109H83.2969V331.375H85.1094V325.828H86.5312ZM80.2344 327.516V328.719H76.4688V335.203C78.1875 335.188 79.4844 335.109 80.9844 334.828L81.0938 336.047C79.4062 336.391 77.9688 336.453 75.9219 336.469H74.9844V327.516H80.2344ZM101.156 336.953V338.172H88.3438V336.953H91.7812V333.844H89.4688V332.641H91.5625V328.281H89.4375V327.062H99.9844V328.281H97.8438V332.641H99.9375V333.844H97.6406V336.953H101.156ZM93.0312 332.641H96.3906V328.281H93.0312V332.641ZM93.2656 336.953H96.1562V333.844H93.2656V336.953ZM107.047 329.953C107.047 332.172 108.5 334.641 110.625 335.641L109.781 336.797C108.211 336.039 106.969 334.461 106.344 332.625C105.695 334.633 104.383 336.359 102.781 337.156L101.906 335.984C104.031 334.969 105.578 332.328 105.578 329.953V328.469H102.422V327.234H110.094V328.469H107.047V329.953ZM113.078 325.828V331.375H115.328V332.625H113.078V339.828H111.594V325.828H113.078Z" fill="#333333"/>
<path d="M331.156 331.625V333.062H326.141V331.625H331.156ZM337.094 338.156C334.469 338.156 332.938 336.047 332.938 332.344C332.938 328.672 334.5 326.531 337.094 326.531C339.688 326.531 341.25 328.672 341.25 332.344C341.25 336.047 339.703 338.156 337.094 338.156ZM337.094 336.672C338.625 336.672 339.531 335.172 339.531 332.344C339.531 329.531 338.609 327.984 337.094 327.984C335.578 327.984 334.656 329.531 334.656 332.344C334.656 335.172 335.562 336.672 337.094 336.672ZM354.188 325.344V335.953H352.703V334.609H349.891V333.562H352.703V325.344H354.188ZM354.531 337.828V339.031H344.422V334.922H345.891V337.828H354.531ZM342.484 331.734C345.078 331.719 348.562 331.688 351.547 331.312L351.641 332.375C350.445 332.57 349.188 332.703 347.953 332.781V335.516H346.469V332.859C345.109 332.922 343.805 332.93 342.672 332.922L342.484 331.734ZM347.062 325.875C349.109 325.875 350.531 326.859 350.531 328.344C350.531 329.828 349.109 330.781 347.062 330.781C344.984 330.781 343.578 329.828 343.578 328.344C343.578 326.859 344.984 325.875 347.062 325.875ZM347.062 326.984C345.812 326.969 344.969 327.5 344.984 328.344C344.969 329.172 345.812 329.688 347.062 329.688C348.266 329.688 349.109 329.172 349.125 328.344C349.109 327.5 348.266 326.969 347.062 326.984Z" fill="#333333"/>
<path d="M86.5312 363.828V377.828H85.1094V370.594H83.2969V377.109H81.9375V364.109H83.2969V369.375H85.1094V363.828H86.5312ZM80.2344 365.516V366.719H76.4688V373.203C78.1875 373.188 79.4844 373.109 80.9844 372.828L81.0938 374.047C79.4062 374.391 77.9688 374.453 75.9219 374.469H74.9844V365.516H80.2344ZM101.156 374.953V376.172H88.3438V374.953H91.7812V371.844H89.4688V370.641H91.5625V366.281H89.4375V365.062H99.9844V366.281H97.8438V370.641H99.9375V371.844H97.6406V374.953H101.156ZM93.0312 370.641H96.3906V366.281H93.0312V370.641ZM93.2656 374.953H96.1562V371.844H93.2656V374.953ZM113.844 363.844V374.188H112.359V368.906H109.297V371.859H102.844V364.766H104.328V367.141H107.828V364.766H109.297V367.703H112.359V363.844H113.844ZM114.156 376.328V377.531H104.703V373.172H106.203V376.328H114.156ZM104.328 370.656H107.828V368.281H104.328V370.656ZM128.125 365.797V367H116.609V365.797H121.641V364.031H123.109V365.797H128.125ZM128.812 375.047V376.25H116V375.047H121.641V373.188C119.188 373.039 117.703 372.07 117.703 370.516C117.703 368.828 119.484 367.844 122.375 367.844C125.234 367.844 127.031 368.828 127.031 370.516C127.031 372.07 125.539 373.039 123.109 373.188V375.047H128.812ZM122.375 369.016C120.375 369.016 119.203 369.547 119.219 370.516C119.203 371.484 120.375 372.016 122.375 372.031C124.344 372.016 125.516 371.484 125.516 370.516C125.516 369.547 124.344 369.016 122.375 369.016Z" fill="#333333"/>
<path d="M337.234 377.156C334.609 377.156 333.078 375.047 333.078 371.344C333.078 367.672 334.641 365.531 337.234 365.531C339.828 365.531 341.391 367.672 341.391 371.344C341.391 375.047 339.844 377.156 337.234 377.156ZM337.234 375.672C338.766 375.672 339.672 374.172 339.672 371.344C339.672 368.531 338.75 366.984 337.234 366.984C335.719 366.984 334.797 368.531 334.797 371.344C334.797 374.172 335.703 375.672 337.234 375.672ZM354.328 364.344V374.953H352.844V373.609H350.031V372.562H352.844V364.344H354.328ZM354.672 376.828V378.031H344.562V373.922H346.031V376.828H354.672ZM342.625 370.734C345.219 370.719 348.703 370.688 351.688 370.312L351.781 371.375C350.586 371.57 349.328 371.703 348.094 371.781V374.516H346.609V371.859C345.25 371.922 343.945 371.93 342.812 371.922L342.625 370.734ZM347.203 364.875C349.25 364.875 350.672 365.859 350.672 367.344C350.672 368.828 349.25 369.781 347.203 369.781C345.125 369.781 343.719 368.828 343.719 367.344C343.719 365.859 345.125 364.875 347.203 364.875ZM347.203 365.984C345.953 365.969 345.109 366.5 345.125 367.344C345.109 368.172 345.953 368.688 347.203 368.688C348.406 368.688 349.25 368.172 349.266 367.344C349.25 366.5 348.406 365.969 347.203 365.984Z" fill="#333333"/>
<path d="M79.375 405.391C79.3594 407.875 80.7969 410.406 82.8906 411.422L81.9688 412.609C80.4453 411.82 79.2656 410.25 78.6562 408.375C78.0234 410.375 76.7969 412.047 75.2031 412.875L74.2812 411.672C76.4375 410.641 77.8906 407.953 77.8906 405.391V403H79.375V405.391ZM85.4219 401.828V407.406H87.6719V408.672H85.4219V415.828H83.9375V401.828H85.4219ZM92.2188 402.469C94.0625 402.453 95.4844 403.523 95.7969 405.094H98.5312V401.828H100.016V409.344H98.5312V406.312H95.8125C95.5078 407.922 94.0781 409 92.2188 409C90.0781 409 88.5469 407.656 88.5469 405.719C88.5469 403.812 90.0781 402.453 92.2188 402.469ZM92.2188 403.703C90.8906 403.703 89.9688 404.516 89.9688 405.719C89.9688 406.922 90.8906 407.75 92.2188 407.75C93.5156 407.75 94.4375 406.922 94.4375 405.719C94.4375 404.516 93.5156 403.703 92.2188 403.703ZM92.3594 410.016V411.641H98.5312V410.016H100.016V415.656H90.8906V410.016H92.3594ZM92.3594 414.438H98.5312V412.812H92.3594V414.438ZM107.047 405.953C107.047 408.172 108.5 410.641 110.625 411.641L109.781 412.797C108.211 412.039 106.969 410.461 106.344 408.625C105.695 410.633 104.383 412.359 102.781 413.156L101.906 411.984C104.031 410.969 105.578 408.328 105.578 405.953V404.469H102.422V403.234H110.094V404.469H107.047V405.953ZM113.078 401.828V407.375H115.328V408.625H113.078V415.828H111.594V401.828H113.078ZM127.672 401.844V412.188H126.188V406.906H123.125V409.859H116.672V402.766H118.156V405.141H121.656V402.766H123.125V405.703H126.188V401.844H127.672ZM127.984 414.328V415.531H118.531V411.172H120.031V414.328H127.984ZM118.156 408.656H121.656V406.281H118.156V408.656ZM141.953 403.797V405H130.438V403.797H135.469V402.031H136.938V403.797H141.953ZM142.641 413.047V414.25H129.828V413.047H135.469V411.188C133.016 411.039 131.531 410.07 131.531 408.516C131.531 406.828 133.312 405.844 136.203 405.844C139.062 405.844 140.859 406.828 140.859 408.516C140.859 410.07 139.367 411.039 136.938 411.188V413.047H142.641ZM136.203 407.016C134.203 407.016 133.031 407.547 133.047 408.516C133.031 409.484 134.203 410.016 136.203 410.031C138.172 410.016 139.344 409.484 139.344 408.516C139.344 407.547 138.172 407.016 136.203 407.016Z" fill="#333333"/>
<path d="M331.156 407.625V409.062H326.141V407.625H331.156ZM337.094 414.156C334.469 414.156 332.938 412.047 332.938 408.344C332.938 404.672 334.5 402.531 337.094 402.531C339.688 402.531 341.25 404.672 341.25 408.344C341.25 412.047 339.703 414.156 337.094 414.156ZM337.094 412.672C338.625 412.672 339.531 411.172 339.531 408.344C339.531 405.531 338.609 403.984 337.094 403.984C335.578 403.984 334.656 405.531 334.656 408.344C334.656 411.172 335.562 412.672 337.094 412.672ZM354.188 401.344V411.953H352.703V410.609H349.891V409.562H352.703V401.344H354.188ZM354.531 413.828V415.031H344.422V410.922H345.891V413.828H354.531ZM342.484 407.734C345.078 407.719 348.562 407.688 351.547 407.312L351.641 408.375C350.445 408.57 349.188 408.703 347.953 408.781V411.516H346.469V408.859C345.109 408.922 343.805 408.93 342.672 408.922L342.484 407.734ZM347.062 401.875C349.109 401.875 350.531 402.859 350.531 404.344C350.531 405.828 349.109 406.781 347.062 406.781C344.984 406.781 343.578 405.828 343.578 404.344C343.578 402.859 344.984 401.875 347.062 401.875ZM347.062 402.984C345.812 402.969 344.969 403.5 344.984 404.344C344.969 405.172 345.812 405.688 347.062 405.688C348.266 405.688 349.109 405.172 349.125 404.344C349.109 403.5 348.266 402.969 347.062 402.984Z" fill="#333333"/>
<path d="M88.9414 464.312V465.666H74.5801V464.312H80.9258V462.502H82.5781V464.312H88.9414ZM82.5781 456.227V457.738H87.5V459.074H82.6836C82.8594 460.595 85.0391 461.737 88.168 461.992L87.6582 463.275C84.9336 463.021 82.7275 462.106 81.752 460.639C80.7676 462.106 78.5615 463.021 75.8633 463.275L75.3359 461.992C78.4473 461.737 80.627 460.595 80.8203 459.074H76.0215V457.738H80.9258V456.227H82.5781ZM81.752 466.703C85.1797 466.703 87.1836 467.635 87.1836 469.34C87.1836 471.045 85.1797 471.977 81.752 471.959C78.3066 471.977 76.2852 471.045 76.2852 469.34C76.2852 467.635 78.3066 466.703 81.752 466.703ZM81.752 467.951C79.3262 467.951 77.9727 468.443 77.9727 469.34C77.9727 470.236 79.3262 470.711 81.752 470.693C84.1426 470.711 85.5137 470.236 85.5137 469.34C85.5137 468.443 84.1426 467.951 81.752 467.951ZM103.268 456.244V464.26H101.598V462.748H97.6074V461.447H101.598V459.742H97.8008C96.8252 462.186 94.4521 463.794 90.9629 464.611L90.3828 463.24C94.1621 462.405 96.21 460.656 96.4824 458.336H91.209V456.965H98.3105C98.3105 457.475 98.2666 457.958 98.1875 458.424H101.598V456.244H103.268ZM103.268 464.928V468.918H94.6543V470.5H103.742V471.836H93.002V467.652H101.598V466.246H92.9668V464.928H103.268ZM119.211 456.244V471.994H117.611V456.244H119.211ZM116.012 456.578V471.203H114.43V463.188H111.986V461.816H114.43V456.578H116.012ZM110.439 460.639C110.439 463.328 111.529 466.018 113.744 467.301L112.742 468.531C111.239 467.635 110.202 466.044 109.666 464.137C109.095 466.193 108.022 467.942 106.484 468.9L105.465 467.652C107.697 466.299 108.84 463.434 108.84 460.639V459.373H105.939V458.02H113.146V459.373H110.439V460.639ZM133.836 457.035V458.23C133.836 459.47 133.836 460.876 133.432 462.783H135.664V464.154H121.25V462.783H131.744C132.166 460.946 132.184 459.602 132.184 458.406H123.061V457.035H133.836ZM133.854 466.158V471.801H123.008V466.158H133.854ZM124.643 467.477V470.447H132.201V467.477H124.643ZM140.551 457.211C142.643 457.211 144.172 458.775 144.172 460.99C144.172 463.205 142.643 464.717 140.551 464.717C138.441 464.717 136.93 463.205 136.947 460.99C136.93 458.775 138.441 457.211 140.551 457.211ZM140.551 458.652C139.32 458.652 138.441 459.584 138.441 460.99C138.441 462.361 139.32 463.328 140.551 463.311C141.764 463.328 142.643 462.361 142.66 460.99C142.643 459.584 141.764 458.652 140.551 458.652ZM150.236 456.262V465.648H148.654V461.588H146.826V465.543H145.262V456.543H146.826V460.234H148.654V456.262H150.236ZM150.236 466.457V471.994H148.584V467.793H139.531V466.457H150.236Z" fill="#333333"/>
<path d="M275.687 459.273V472H273.032V461.787H272.962L270.044 463.615V461.277L273.19 459.273H275.687ZM283.562 472.176C280.925 472.158 278.429 470.594 278.429 465.936C278.429 461.646 280.485 459.098 283.667 459.098C286.233 459.098 287.974 460.715 288.237 462.807H285.636C285.425 461.91 284.687 461.365 283.667 461.365C281.944 461.365 281.03 462.93 281.013 465.426H281.136C281.716 464.301 282.981 463.633 284.388 463.633C286.673 463.633 288.378 465.355 288.378 467.746C288.378 470.33 286.427 472.193 283.562 472.176ZM283.544 470.084C284.845 470.084 285.812 469.1 285.812 467.816C285.812 466.551 284.88 465.549 283.579 465.549C282.278 465.549 281.294 466.568 281.276 467.816C281.294 469.064 282.243 470.084 283.544 470.084ZM295.146 472.176C291.964 472.176 290.03 469.803 290.03 465.637C290.03 461.471 291.964 459.098 295.146 459.098C298.327 459.098 300.261 461.488 300.261 465.637C300.261 469.82 298.327 472.176 295.146 472.176ZM295.146 469.996C296.622 469.996 297.571 468.572 297.554 465.637C297.554 462.736 296.622 461.26 295.146 461.26C293.669 461.26 292.737 462.736 292.737 465.637C292.72 468.572 293.669 469.996 295.146 469.996ZM304.409 470.699L302.897 475.709H301.034L301.913 470.699H304.409ZM311.142 472.176C307.96 472.176 306.026 469.803 306.026 465.637C306.026 461.471 307.96 459.098 311.142 459.098C314.323 459.098 316.257 461.488 316.257 465.637C316.257 469.82 314.323 472.176 311.142 472.176ZM311.142 469.996C312.618 469.996 313.567 468.572 313.55 465.637C313.55 462.736 312.618 461.26 311.142 461.26C309.665 461.26 308.733 462.736 308.733 465.637C308.716 468.572 309.665 469.996 311.142 469.996ZM323.024 472.176C319.843 472.176 317.909 469.803 317.909 465.637C317.909 461.471 319.843 459.098 323.024 459.098C326.206 459.098 328.14 461.488 328.14 465.637C328.14 469.82 326.206 472.176 323.024 472.176ZM323.024 469.996C324.501 469.996 325.45 468.572 325.433 465.637C325.433 462.736 324.501 461.26 323.024 461.26C321.548 461.26 320.616 462.736 320.616 465.637C320.599 468.572 321.548 469.996 323.024 469.996ZM334.907 472.176C331.726 472.176 329.792 469.803 329.792 465.637C329.792 461.471 331.726 459.098 334.907 459.098C338.089 459.098 340.022 461.488 340.022 465.637C340.022 469.82 338.089 472.176 334.907 472.176ZM334.907 469.996C336.384 469.996 337.333 468.572 337.315 465.637C337.315 462.736 336.384 461.26 334.907 461.26C333.431 461.26 332.499 462.736 332.499 465.637C332.481 468.572 333.431 469.996 334.907 469.996Z" fill="#457BE5"/>
<path d="M358.919 457.762V469.697H357.249V468.186H354.085V467.008H357.249V457.762H358.919ZM359.306 471.807V473.16H347.933V468.537H349.585V471.807H359.306ZM345.753 464.951C348.671 464.934 352.591 464.898 355.948 464.477L356.054 465.672C354.709 465.892 353.294 466.041 351.905 466.129V469.205H350.235V466.217C348.706 466.287 347.238 466.296 345.964 466.287L345.753 464.951ZM350.903 458.359C353.206 458.359 354.806 459.467 354.806 461.137C354.806 462.807 353.206 463.879 350.903 463.879C348.565 463.879 346.983 462.807 346.983 461.137C346.983 459.467 348.565 458.359 350.903 458.359ZM350.903 459.607C349.497 459.59 348.548 460.188 348.565 461.137C348.548 462.068 349.497 462.648 350.903 462.648C352.257 462.648 353.206 462.068 353.224 461.137C353.206 460.188 352.257 459.59 350.903 459.607Z" fill="#333333"/>
<path d="M74 431H76.5" stroke="#DDDDDD" stroke-width="2" stroke-miterlimit="10" stroke-linecap="round"/>
<path d="M81.54 431H350.98" stroke="#DDDDDD" stroke-width="2" stroke-miterlimit="10" stroke-linecap="round" stroke-dasharray="5.04 5.04"/>
<g clip-path="url(#clip1_44_1992)">
<path d="M75 265.5H77.5" stroke="#DDDDDD" stroke-width="2" stroke-miterlimit="10" stroke-linecap="round"/>
<path d="M82.54 265.5H351.98" stroke="#DDDDDD" stroke-width="2" stroke-miterlimit="10" stroke-linecap="round" stroke-dasharray="5.04 5.04"/>
</g>
<path d="M75 130H77.5" stroke="#DDDDDD" stroke-width="2" stroke-miterlimit="10" stroke-linecap="round"/>
<path d="M82.54 130H351.98" stroke="#DDDDDD" stroke-width="2" stroke-miterlimit="10" stroke-linecap="round" stroke-dasharray="5.04 5.04"/>
<path d="M41.429 583.84C40.099 582.538 38.965 580.578 38.965 578.128V577.89C38.965 575.426 40.099 573.494 41.429 572.192H42.479C41.233 573.578 40.197 575.594 40.197 577.778V578.142C40.197 580.256 41.233 582.44 42.479 583.84H41.429ZM53.67 583.896H45.34V580.802H51.99V579.752H45.284V578.744H53.236V581.74H46.572V582.874H53.67V583.896ZM50.842 576.504L50.94 577.456C50.072 577.61 48.672 577.708 47.3 577.792C45.998 577.848 44.626 577.904 43.492 577.904L43.31 576.854C43.856 576.854 44.402 576.854 44.948 576.84L44.64 574.208L45.858 574.068L46.054 576.812C46.53 576.798 46.992 576.784 47.44 576.756C47.594 576.756 47.734 576.756 47.874 576.742L48.056 574.054L49.26 574.194L48.966 576.7C49.736 576.644 50.38 576.574 50.842 576.504ZM53.236 578.128H51.99V571.744H53.236V578.128ZM50.352 573.48H43.674V572.5H50.352V573.48ZM61.4293 583.994H60.1833V579.598H55.3113V578.604H66.3573V579.598H61.4293V583.994ZM65.9373 576.378L65.3493 577.386C63.5433 577.05 61.4713 575.832 60.8273 574.474C60.2813 575.832 58.1813 577.05 56.3193 577.4L55.7593 576.392C57.9713 576.098 60.1833 574.6 60.1833 572.892V572.122H61.4853V572.892C61.4853 574.6 63.9493 576.182 65.9373 576.378ZM67.0466 583.84C68.3206 582.454 69.3426 580.438 69.3426 578.254V577.876C69.3426 575.776 68.3206 573.592 67.0466 572.192H68.1106C69.4406 573.494 70.5886 575.44 70.5886 577.89V578.128C70.5886 580.592 69.4406 582.538 68.1106 583.84H67.0466ZM85.6533 583.98H84.4073V571.744H85.6533V583.98ZM75.9933 576.98C75.9933 574.558 76.9733 572.668 79.1433 572.668C81.3133 572.668 82.2793 574.558 82.2793 576.994C82.2793 579.416 81.3133 581.32 79.1433 581.32C76.9733 581.32 75.9933 579.416 75.9933 576.98ZM81.0473 576.994C81.0473 575.104 80.4033 573.732 79.1433 573.732C77.8973 573.732 77.2533 575.104 77.2533 576.994C77.2533 578.884 77.8973 580.242 79.1433 580.242C80.4033 580.242 81.0473 578.884 81.0473 576.994ZM101.808 583.91H93.4784V580.76H100.142V579.598H93.3804V578.604H101.388V581.684H94.7104V582.902H101.808V583.91ZM97.6084 572.374C97.3984 575.58 95.0184 577.47 92.0924 578.282L91.4204 577.302C93.9404 576.742 95.7464 575.286 96.2084 573.41H92.0364V572.374H97.6084ZM97.7484 574.46V573.494H100.142V571.744H101.388V577.946H100.142V576.7H97.5944V575.734H100.142V574.46H97.7484ZM109.708 580.284L108.966 581.166C108.112 580.606 106.824 579.206 106.488 577.988C106.222 579.276 105.144 580.662 104.024 581.418L103.24 580.564C104.766 579.584 105.886 577.736 105.886 575.342V574.194H103.506V573.2H109.358V574.194H107.104V575.3C107.104 577.806 108.378 579.472 109.708 580.284ZM111.374 583.378H110.198V577.162H108.378V576.14H110.198V572.024H111.374V583.378ZM113.796 583.98H112.606V571.744H113.796V583.98ZM126.623 578.982H115.577V577.974H126.623V578.982ZM125.461 583.714H117.047V580.088H118.279V582.692H125.461V583.714ZM125.405 576.532H117.089V572.248H118.321V575.524H125.405V576.532ZM141.392 583.98H140.16V577.148H136.674V576.084H140.16V571.744H141.392V583.98ZM138.382 579.542L138.55 580.522C137.248 580.802 135.386 580.97 133.132 580.97H131.872V572.934H137.598V573.942H133.118V579.948C135.078 579.948 137.01 579.822 138.382 579.542ZM151.265 579.668L151.391 580.69C150.117 580.9 148.115 581.068 145.637 581.096H144.111V576.28H148.689V573.858H144.055V572.85H149.921V577.274H145.343V580.046H145.707C147.415 580.046 149.781 579.948 151.265 579.668ZM152.329 571.744H153.575V583.98H152.329V571.744ZM165.325 578.744H157.023V572.948H165.213V573.956H158.255V577.75H165.325V578.744ZM166.641 582.328H155.595V581.32H166.641V582.328ZM172.594 575.034L172.174 579.822C172.762 579.794 173.28 579.738 173.658 579.668L173.77 580.662C173.126 580.746 171.964 580.872 170.914 580.914C169.738 580.998 168.744 581.04 167.722 581.04L167.526 579.99C167.946 579.99 168.394 579.99 168.87 579.976L168.492 575.076L169.71 574.908L169.976 579.948L170.844 579.906C170.928 579.906 171.012 579.906 171.11 579.892L171.404 574.922L172.594 575.034ZM175.786 583.378H174.596V577.484H173.028V576.476H174.596V572.024H175.786V583.378ZM178.04 583.98H176.85V571.744H178.04V583.98ZM173.406 574.236H167.82V573.228H173.406V574.236ZM189.915 583.98H188.669V571.744H189.915V583.98ZM180.255 576.98C180.255 574.558 181.235 572.668 183.405 572.668C185.575 572.668 186.541 574.558 186.541 576.994C186.541 579.416 185.575 581.32 183.405 581.32C181.235 581.32 180.255 579.416 180.255 576.98ZM185.309 576.994C185.309 575.104 184.665 573.732 183.405 573.732C182.159 573.732 181.515 575.104 181.515 576.994C181.515 578.884 182.159 580.242 183.405 580.242C184.665 580.242 185.309 578.884 185.309 576.994ZM191.472 583.84L194.72 572.192H195.798L192.55 583.84H191.472ZM207.39 583.896H198.878V580.788H205.71V579.654H198.794V578.66H206.942V581.726H200.124V582.874H207.39V583.896ZM206.956 578.044H205.766V575.538H204.366V577.96H203.19V571.968H204.366V574.53H205.766V571.744H206.956V578.044ZM201.93 572.458C201.846 575.636 199.83 577.512 197.38 578.492L196.624 577.554C198.808 576.854 200.39 575.188 200.6 573.466H197.212V572.458H201.93ZM210.543 579.822H218.789V583.98H217.529V580.83H210.543V579.822ZM215.527 577.218L215.681 578.184C214.561 578.464 212.755 578.576 210.851 578.576H209.199V574.964H213.385V573.438H209.185V572.444H214.631V575.93H210.445V577.596H210.725C212.587 577.596 214.225 577.512 215.527 577.218ZM215.513 575.93V574.908H217.529V571.744H218.775V579.178H217.529V575.93H215.513ZM230.972 583.98H229.74V571.744H230.972V583.98ZM228.284 580.116L227.542 581.04C226.45 580.284 225.036 578.828 224.588 577.4C224.154 578.898 222.95 580.452 221.564 581.362L220.794 580.452C222.628 579.29 223.93 577.162 223.93 574.908V572.822H225.218V574.852C225.218 577.148 226.59 579.136 228.284 580.116ZM244.374 577.624H242.414V583.98H241.168V571.744H242.414V576.602H244.374V577.624ZM233.146 576.938C233.146 574.516 234.098 572.612 236.254 572.612C238.41 572.612 239.348 574.516 239.348 576.952C239.348 579.36 238.41 581.264 236.254 581.264C234.098 581.264 233.146 579.36 233.146 576.938ZM238.13 576.952C238.13 575.048 237.486 573.676 236.254 573.676C235.022 573.676 234.392 575.048 234.392 576.952C234.392 578.828 235.022 580.2 236.254 580.2C237.486 580.2 238.13 578.828 238.13 576.952ZM256.123 582.426H245.077V581.418H249.949V579.486H246.407V575.552H253.519V573.76H246.379V572.752H254.751V576.56H247.639V578.478H255.087V579.486H251.195V581.418H256.123V582.426ZM271.368 575.706L270.794 576.686C269.044 576.378 267 575.23 266.384 573.928C265.824 575.244 263.822 576.35 261.988 576.672L261.442 575.692C263.388 575.482 265.754 574.208 265.754 572.444V572.08H267.028V572.444C267.028 574.208 269.576 575.566 271.368 575.706ZM271.914 578.632H260.868V577.61H271.914V578.632ZM270.612 581.768C270.612 583.154 269.072 583.966 266.384 583.966C263.71 583.966 262.17 583.14 262.17 581.768C262.17 580.41 263.71 579.584 266.384 579.584C269.072 579.584 270.612 580.368 270.612 581.768ZM269.352 581.768C269.352 581.026 268.218 580.578 266.384 580.578C264.578 580.578 263.444 581.026 263.444 581.768C263.444 582.538 264.578 582.958 266.384 582.958C268.218 582.958 269.352 582.538 269.352 581.768ZM283.019 580.634H281.773V571.744H283.019V580.634ZM283.299 583.602H274.969V579.794H276.215V582.608H283.299V583.602ZM276.523 572.57C278.413 572.57 279.799 573.872 279.799 575.622C279.799 577.386 278.413 578.604 276.523 578.604C274.647 578.604 273.261 577.386 273.261 575.636C273.261 573.872 274.647 572.57 276.523 572.57ZM276.523 573.634C275.375 573.634 274.563 574.474 274.563 575.608C274.563 576.728 275.375 577.568 276.523 577.568C277.727 577.568 278.483 576.742 278.483 575.622C278.483 574.46 277.727 573.634 276.523 573.634ZM293.229 581.166C292.207 581.292 290.779 581.404 289.281 581.488C287.937 581.558 286.159 581.6 285.291 581.6L285.109 580.55C286.103 580.55 287.307 580.536 288.511 580.494V578.002H285.977V572.92H292.361V573.928H287.209V576.994H292.431V578.002H289.743V580.452C291.031 580.382 292.305 580.298 293.145 580.186L293.229 581.166ZM295.217 583.98H293.985V571.744H295.217V583.98ZM308.254 578.982H297.208V577.974H308.254V578.982ZM307.092 583.714H298.678V580.088H299.91V582.692H307.092V583.714ZM307.036 576.532H298.72V572.248H299.952V575.524H307.036V576.532ZM318.113 576.21H315.565V575.174H318.113V571.744H319.359V579.892H318.113V576.21ZM320.045 583.098L319.387 584.106C317.763 583.798 315.803 582.412 315.327 581.362C314.879 582.482 312.989 583.77 311.197 584.106L310.553 583.112C312.541 582.888 314.711 581.446 314.711 579.682V578.996H315.985V579.682C315.985 581.418 318.197 582.86 320.045 583.098ZM309.993 572.738H315.523C315.369 576.014 313.213 578.282 310.021 579.346L309.363 578.31C311.855 577.694 313.899 575.832 314.179 573.774H309.993V572.738ZM332.48 577.974H321.434V576.966H332.48V577.974ZM331.556 583.896H322.694V580.9H329.862V580.018H322.666V579.01H331.094V581.824H323.926V582.874H331.556V583.896ZM331.206 574.082C331.206 575.454 329.624 576.238 326.964 576.238C324.332 576.238 322.75 575.454 322.75 574.082C322.75 572.696 324.332 571.912 326.964 571.912C329.624 571.912 331.206 572.696 331.206 574.082ZM326.964 572.906C325.172 572.906 324.038 573.382 324.038 574.082C324.038 574.768 325.172 575.244 326.964 575.244C328.784 575.244 329.932 574.768 329.932 574.082C329.932 573.382 328.784 572.906 326.964 572.906ZM344.841 579.444C343.945 579.57 342.363 579.71 340.963 579.78C339.577 579.85 337.981 579.92 337.141 579.92L336.959 578.898C337.883 578.898 339.157 578.87 340.319 578.828V578.058C339.059 577.932 338.149 577.386 338.149 576.448C338.149 575.328 339.395 574.754 340.963 574.754C342.531 574.754 343.791 575.328 343.791 576.434C343.791 577.386 342.839 577.932 341.565 578.058V578.758C342.741 578.702 344.029 578.618 344.715 578.492L344.841 579.444ZM348.551 576.77H346.731V579.906H345.513V571.744H346.731V575.748H348.551V576.77ZM338.639 580.536H346.731V584.036H345.513V581.544H338.639V580.536ZM344.449 574.432H337.407V573.466H344.449V574.432ZM342.587 576.434C342.587 575.944 341.901 575.678 340.963 575.678C340.025 575.678 339.353 575.944 339.353 576.434C339.353 576.91 340.025 577.19 340.963 577.19C341.901 577.19 342.587 576.91 342.587 576.434ZM342.643 572.864H339.227V571.898H342.643V572.864ZM359.377 580.634H358.131V571.744H359.377V580.634ZM359.657 583.602H351.327V579.794H352.573V582.608H359.657V583.602ZM352.881 572.57C354.771 572.57 356.157 573.872 356.157 575.622C356.157 577.386 354.771 578.604 352.881 578.604C351.005 578.604 349.619 577.386 349.619 575.636C349.619 573.872 351.005 572.57 352.881 572.57ZM352.881 573.634C351.733 573.634 350.921 574.474 350.921 575.608C350.921 576.728 351.733 577.568 352.881 577.568C354.085 577.568 354.841 576.742 354.841 575.622C354.841 574.46 354.085 573.634 352.881 573.634ZM371.784 579.332H370.594V576.224H369.25V579.178H368.074V571.968H369.25V575.202H370.594V571.744H371.784V579.332ZM367.192 577.428C367.192 578.604 366.24 579.374 364.56 579.374C362.88 579.374 361.914 578.604 361.914 577.428C361.914 576.238 362.88 575.454 364.56 575.454C366.24 575.454 367.192 576.238 367.192 577.428ZM371.98 584.078C371.154 583.7 370.09 582.832 369.796 581.992C369.516 582.846 368.606 583.77 367.612 584.246L366.814 583.434C368.172 582.776 369.166 581.67 369.166 580.172V579.766H370.384V580.144C370.384 581.656 371.56 582.79 372.736 583.224C372.484 583.518 372.218 583.784 371.98 584.078ZM366.73 583.07C366.198 582.79 365.582 582.342 365.316 581.768C365.036 582.636 364 583.644 362.964 584.106L362.236 583.252C363.538 582.664 364.644 581.586 364.644 580.074V579.78H365.848V580.004C365.848 581.222 366.618 581.922 367.528 582.258C367.262 582.524 366.982 582.79 366.73 583.07ZM367.668 575.006H361.382V574.012H367.668V575.006ZM366.002 577.428C366.002 576.882 365.47 576.504 364.56 576.504C363.65 576.504 363.104 576.882 363.104 577.428C363.104 577.974 363.65 578.352 364.56 578.352C365.47 578.352 366.002 577.974 366.002 577.428ZM366.072 573.27H362.866V572.276H366.072V573.27ZM384.065 575.524L383.491 576.504C381.741 576.196 379.697 575.076 379.081 573.788C378.521 575.09 376.519 576.168 374.685 576.49L374.139 575.51C376.085 575.3 378.451 574.054 378.451 572.304V571.912H379.725V572.304C379.725 574.054 382.273 575.384 384.065 575.524ZM384.611 578.366H373.565V577.358H384.611V578.366ZM383.211 583.826H374.965V579.164H376.211V580.508H381.965V579.15H383.211V583.826ZM381.965 582.832V581.502H376.211V582.832H381.965ZM395.702 571.744V583.98H394.47V571.744H395.702ZM393.322 579.36L393.476 580.368C392.048 580.718 389.29 580.928 387.554 580.956H386.406V573.018H387.652V579.892C389.262 579.892 391.908 579.696 393.322 579.36ZM399.542 579.962H400.046C401.656 579.962 403.91 579.836 405.142 579.57L405.282 580.578C404.008 580.844 401.908 580.984 399.682 580.998H398.31V573.032H404.092V574.054H399.542V579.962ZM407.242 571.744V576.518H409.146V577.554H407.242V583.98H406.01V571.744H407.242ZM409.989 582.734V581.362H411.347V582.734H409.989Z" fill="#666666"/>
<circle cx="25.5" cy="578.5" r="8" stroke="#457BE5"/>
<circle cx="25.5001" cy="578.5" r="4.22222" fill="#457BE5" stroke="#457BE5"/>
<path d="M62.6641 801.912V808.146H61.3652V806.971H58.2617V805.959H61.3652V804.633H58.4121C57.6533 806.533 55.8076 807.784 53.0938 808.42L52.6426 807.354C55.582 806.704 57.1748 805.344 57.3867 803.539H53.2852V802.473H58.8086C58.8086 802.869 58.7744 803.245 58.7129 803.607H61.3652V801.912H62.6641ZM62.6641 808.666V811.77H55.9648V813H63.0332V814.039H54.6797V810.785H61.3652V809.691H54.6523V808.666H62.6641ZM75.0645 801.912V814.162H73.8203V801.912H75.0645ZM72.5762 802.172V813.547H71.3457V807.312H69.4453V806.246H71.3457V802.172H72.5762ZM68.2422 805.33C68.2422 807.422 69.0898 809.514 70.8125 810.512L70.0332 811.469C68.8643 810.771 68.0576 809.534 67.6406 808.051C67.1963 809.65 66.3623 811.011 65.166 811.756L64.373 810.785C66.1094 809.732 66.998 807.504 66.998 805.33V804.346H64.7422V803.293H70.3477V804.346H68.2422V805.33ZM90.6094 803.266V804.332H80.6426V803.266H85.0039V801.857H86.2891V803.266H90.6094ZM91.2793 809.842V810.908H86.2891V814.176H85.0039V810.908H80.0684V809.842H91.2793ZM85.6465 804.961C88.1895 804.961 89.7207 805.686 89.7207 807.025C89.7207 808.338 88.1895 809.062 85.6465 809.076C83.0898 809.062 81.5586 808.338 81.5723 807.025C81.5586 805.686 83.0898 804.961 85.6465 804.961ZM85.6465 805.932C83.8828 805.932 82.9121 806.314 82.9121 807.025C82.9121 807.709 83.8828 808.092 85.6465 808.092C87.3965 808.092 88.3672 807.709 88.3809 807.025C88.3672 806.314 87.3965 805.932 85.6465 805.932ZM105.799 801.912V808.146H104.5V806.971H101.396V805.959H104.5V804.633H101.547C100.788 806.533 98.9424 807.784 96.2285 808.42L95.7773 807.354C98.7168 806.704 100.31 805.344 100.521 803.539H96.4199V802.473H101.943C101.943 802.869 101.909 803.245 101.848 803.607H104.5V801.912H105.799ZM105.799 808.666V811.77H99.0996V813H106.168V814.039H97.8145V810.785H104.5V809.691H97.7871V808.666H105.799ZM118.199 801.912V814.162H116.955V801.912H118.199ZM115.711 802.172V813.547H114.48V807.312H112.58V806.246H114.48V802.172H115.711ZM111.377 805.33C111.377 807.422 112.225 809.514 113.947 810.512L113.168 811.469C111.999 810.771 111.192 809.534 110.775 808.051C110.331 809.65 109.497 811.011 108.301 811.756L107.508 810.785C109.244 809.732 110.133 807.504 110.133 805.33V804.346H107.877V803.293H113.482V804.346H111.377V805.33ZM126.922 802.459C128.713 802.459 129.971 803.443 129.984 804.906C129.971 806.15 129.027 807.066 127.605 807.285V808.365C128.692 808.311 129.779 808.215 130.791 808.064L130.887 809.021C128.316 809.486 125.432 809.527 123.326 809.527L123.189 808.475C124.105 808.481 125.179 808.475 126.307 808.434V807.299C124.844 807.094 123.859 806.171 123.873 804.906C123.859 803.443 125.131 802.459 126.922 802.459ZM126.922 803.457C125.842 803.457 125.076 804.018 125.09 804.906C125.076 805.768 125.842 806.342 126.922 806.342C128.016 806.342 128.754 805.768 128.754 804.906C128.754 804.018 128.016 803.457 126.922 803.457ZM132.842 801.926V805.973H134.592V807.066H132.842V811.291H131.543V801.926H132.842ZM133.279 812.836V813.902H124.926V810.471H126.225V812.836H133.279ZM146.514 811.605V812.699H135.303V811.605H138.365V809.445H136.67V805.549H143.861V803.84H136.643V802.773H145.146V806.602H137.955V808.379H145.434V809.445H143.574V811.605H146.514ZM139.623 811.605H142.303V809.445H139.623V811.605ZM161.416 801.912V814.162H160.172V801.912H161.416ZM158.996 802.186V813.533H157.766V807.668H156.234V806.506H157.766V802.186H158.996ZM156.562 803.416V804.482H155.619V809.951C156.036 809.924 156.439 809.876 156.809 809.828L156.904 810.771C154.963 811.154 152.42 811.209 150.834 811.209L150.684 810.115L151.887 810.102V804.482H150.943V803.416H156.562ZM153.062 810.088C153.507 810.074 153.965 810.061 154.416 810.033V804.482H153.062V810.088ZM173.064 801.912V814.189H171.766V801.912H173.064ZM166.516 802.828C168.334 802.828 169.674 804.496 169.674 807.121C169.674 809.76 168.334 811.428 166.516 811.428C164.67 811.428 163.344 809.76 163.344 807.121C163.344 804.496 164.67 802.828 166.516 802.828ZM166.516 803.99C165.381 803.99 164.602 805.193 164.602 807.121C164.602 809.062 165.381 810.266 166.516 810.266C167.637 810.266 168.416 809.062 168.416 807.121C168.416 805.193 167.637 803.99 166.516 803.99ZM179.531 805.521C179.531 807.572 180.871 809.691 182.758 810.498L182.047 811.51C180.604 810.874 179.456 809.527 178.889 807.887C178.321 809.637 177.166 811.127 175.744 811.824L174.992 810.799C176.838 809.938 178.205 807.627 178.219 805.521V804.223H175.416V803.143H182.32V804.223H179.531V805.521ZM185.164 801.912V814.162H183.865V801.912H185.164ZM196.662 801.912V806.793H198.562V807.873H196.662V814.148H195.363V801.912H196.662ZM193.463 803.197C193.449 806.738 191.891 809.896 187.857 811.893L187.133 810.881C190.202 809.35 191.87 807.135 192.137 804.277H187.748V803.197H193.463ZM213.848 811.564V812.645H202.637V811.564H207.572V809.049H203.922V802.746H205.221V804.852H211.236V802.746H212.521V809.049H208.857V811.564H213.848ZM205.221 807.996H211.236V805.904H205.221V807.996ZM224.881 801.912V814.189H223.582V801.912H224.881ZM218.332 802.828C220.15 802.828 221.49 804.496 221.49 807.121C221.49 809.76 220.15 811.428 218.332 811.428C216.486 811.428 215.16 809.76 215.16 807.121C215.16 804.496 216.486 802.828 218.332 802.828ZM218.332 803.99C217.197 803.99 216.418 805.193 216.418 807.121C216.418 809.062 217.197 810.266 218.332 810.266C219.453 810.266 220.232 809.062 220.232 807.121C220.232 805.193 219.453 803.99 218.332 803.99ZM231.348 805.521C231.348 807.572 232.688 809.691 234.574 810.498L233.863 811.51C232.421 810.874 231.272 809.527 230.705 807.887C230.138 809.637 228.982 811.127 227.561 811.824L226.809 810.799C228.654 809.938 230.021 807.627 230.035 805.521V804.223H227.232V803.143H234.137V804.223H231.348V805.521ZM236.98 801.912V814.162H235.682V801.912H236.98ZM245.758 802.568C247.617 802.568 248.971 803.758 248.971 805.412C248.971 807.08 247.617 808.256 245.758 808.256C243.912 808.256 242.531 807.08 242.545 805.412C242.531 803.758 243.912 802.568 245.758 802.568ZM245.758 803.648C244.65 803.648 243.803 804.373 243.803 805.412C243.803 806.451 244.65 807.189 245.758 807.189C246.879 807.189 247.713 806.451 247.713 805.412C247.713 804.373 246.879 803.648 245.758 803.648ZM251.979 801.912V804.592H253.756V805.672H251.979V808.01H250.68V801.912H251.979ZM244.855 809.281V812.768C245.573 812.733 246.4 812.631 247.18 812.371L247.371 813.396C246.236 813.779 245.129 813.834 244.213 813.834H243.584V809.281H244.855ZM253.127 809.322V810.32H246.947V809.322H249.422V808.324H250.693V809.322H253.127ZM250.037 810.676C251.391 810.676 252.348 811.359 252.348 812.426C252.348 813.479 251.391 814.148 250.037 814.135C248.656 814.148 247.713 813.479 247.727 812.426C247.713 811.359 248.656 810.676 250.037 810.676ZM250.037 811.605C249.354 811.605 248.875 811.92 248.875 812.426C248.875 812.918 249.354 813.232 250.037 813.232C250.707 813.232 251.186 812.918 251.186 812.426C251.186 811.92 250.707 811.605 250.037 811.605ZM260.031 802.65C262.602 802.65 264.557 804.004 264.557 806.068C264.557 808.133 262.602 809.5 260.031 809.486C257.461 809.5 255.52 808.133 255.52 806.068C255.52 804.004 257.461 802.65 260.031 802.65ZM260.031 803.703C258.158 803.689 256.75 804.646 256.764 806.068C256.75 807.504 258.158 808.42 260.031 808.42C261.904 808.42 263.299 807.504 263.299 806.068C263.299 804.646 261.904 803.689 260.031 803.703ZM265.664 811.496V812.576H254.453V811.496H265.664ZM272.801 802.951V803.99H275.467V801.926H276.766V810.854H275.467V807.682H272.801V808.748H267.113V802.951H272.801ZM268.398 804.004V807.723H271.529V804.004H268.398ZM277.039 812.85V813.902H268.768V810.033H270.08V812.85H277.039ZM272.801 806.615H275.467V805.057H272.801V806.615ZM57.8652 820.334C57.8652 821.496 57.749 822.624 57.4277 823.684H59.1641V819.227H60.3945V830.561H59.1641V824.736H57.0312C56.3477 826.233 55.165 827.566 53.2305 828.646L52.4922 827.744C54.2695 826.753 55.3428 825.557 55.9512 824.189L52.6699 824.531L52.4922 823.41L56.3203 823.178C56.4707 822.61 56.5596 822.016 56.6074 821.4H53.0938V820.334H57.8652ZM62.9785 818.912V831.162H61.748V818.912H62.9785ZM67.873 819.828C69.5342 819.828 70.751 821.236 70.9492 823.506H73.4785V818.912H74.7637V831.189H73.4785V824.559H70.9629C70.8193 826.944 69.5752 828.428 67.873 828.428C66.041 828.428 64.7559 826.76 64.7695 824.121C64.7559 821.496 66.041 819.828 67.873 819.828ZM67.873 820.99C66.7656 820.99 66 822.193 66 824.121C66 826.062 66.7656 827.266 67.873 827.266C68.9805 827.266 69.7461 826.062 69.7461 824.121C69.7461 822.193 68.9805 820.99 67.873 820.99ZM79.9316 819.828C81.7637 819.828 83.0625 821.496 83.0762 824.121C83.0625 826.76 81.7637 828.428 79.9316 828.428C78.0996 828.428 76.7871 826.76 76.8008 824.121C76.7871 821.496 78.0996 819.828 79.9316 819.828ZM79.9316 820.99C78.8105 820.99 78.0449 822.193 78.0449 824.121C78.0449 826.062 78.8105 827.266 79.9316 827.266C81.0664 827.266 81.832 826.062 81.832 824.121C81.832 822.193 81.0664 820.99 79.9316 820.99ZM86.1934 818.912V823.711H88.1621V824.805H86.1934V831.162H84.8945V818.912H86.1934ZM98.8945 818.912V831.189H97.5957V818.912H98.8945ZM92.3457 819.828C94.1641 819.828 95.5039 821.496 95.5039 824.121C95.5039 826.76 94.1641 828.428 92.3457 828.428C90.5 828.428 89.1738 826.76 89.1738 824.121C89.1738 821.496 90.5 819.828 92.3457 819.828ZM92.3457 820.99C91.2109 820.99 90.4316 822.193 90.4316 824.121C90.4316 826.062 91.2109 827.266 92.3457 827.266C93.4668 827.266 94.2461 826.062 94.2461 824.121C94.2461 822.193 93.4668 820.99 92.3457 820.99ZM114.18 820.088V821.291C114.18 822.809 114.18 824.504 113.715 827.006L112.402 826.869C112.881 824.504 112.881 822.768 112.881 821.291V821.141H105.443V820.088H114.18ZM115.438 828.428V829.508H104.268V828.428H108.52V824.107H109.805V828.428H115.438ZM126.812 818.926V826.131H125.582V822.986H124.105V826.062H122.875V819.145H124.105V821.906H125.582V818.926H126.812ZM126.812 826.664V831.162H125.527V827.717H118.445V826.664H126.812ZM121.727 819.801C121.727 822.781 120.127 824.941 116.996 826.24L116.367 825.27C118.842 824.299 120.182 822.774 120.414 820.854H116.9V819.801H121.727ZM138.912 818.912V828.1H137.682V818.912H138.912ZM136.479 819.131V827.744H135.234V822.986H133.443V821.92H135.234V819.131H136.479ZM139.268 829.85V830.902H130.791V826.979H132.076V829.85H139.268ZM132.172 821.51C132.172 822.945 132.979 824.395 134.537 825.078L133.812 826.076C132.732 825.584 131.974 824.702 131.57 823.643C131.119 824.825 130.306 825.844 129.164 826.391L128.439 825.393C130.053 824.627 130.914 822.959 130.914 821.51V819.76H132.172V821.51ZM150.779 818.912V831.189H149.494V824.504H147.061V823.438H149.494V818.912H150.779ZM146.855 820.006V821.059H142.439V823.438H146.336V824.477H142.439V827.211C144.49 827.204 145.912 827.156 147.539 826.869L147.676 827.922C145.898 828.209 144.354 828.277 142.084 828.291H141.127V820.006H146.855ZM156.822 826.227C156.836 823.656 157.561 821.51 158.846 819.678H160.186C159.242 821.031 158.34 823.793 158.34 826.227C158.34 828.674 159.242 831.422 160.186 832.789H158.846C157.561 830.957 156.836 828.811 156.822 826.227ZM164.957 830.137C162.66 830.137 161.32 828.291 161.32 825.051C161.32 821.838 162.688 819.965 164.957 819.965C167.227 819.965 168.594 821.838 168.594 825.051C168.594 828.291 167.24 830.137 164.957 830.137ZM164.957 828.838C166.297 828.838 167.09 827.525 167.09 825.051C167.09 822.59 166.283 821.236 164.957 821.236C163.631 821.236 162.824 822.59 162.824 825.051C162.824 827.525 163.617 828.838 164.957 828.838ZM170.152 830V828.906L173.584 825.447C174.664 824.312 175.211 823.684 175.211 822.822C175.211 821.852 174.418 821.223 173.379 821.223C172.285 821.223 171.574 821.92 171.574 822.973H170.152C170.139 821.168 171.52 819.965 173.406 819.965C175.32 819.965 176.633 821.168 176.646 822.781C176.633 823.889 176.113 824.764 174.254 826.596L172.244 828.633V828.715H176.811V830H170.152ZM185.479 830.137C183.646 830.123 181.732 829.043 181.732 825.379C181.732 821.934 183.223 819.965 185.602 819.965C187.42 819.965 188.691 821.1 188.924 822.672H187.434C187.242 821.865 186.6 821.277 185.602 821.277C184.07 821.277 183.182 822.617 183.182 824.846H183.291C183.824 824.012 184.754 823.506 185.834 823.506C187.598 823.506 189.02 824.859 189.02 826.76C189.02 828.674 187.611 830.15 185.479 830.137ZM185.465 828.879C186.668 828.879 187.557 827.949 187.557 826.787C187.557 825.652 186.695 824.736 185.506 824.736C184.289 824.736 183.373 825.693 183.359 826.801C183.373 827.895 184.248 828.879 185.465 828.879ZM194.023 819.965C195.842 819.979 197.756 821.072 197.756 824.695C197.756 828.168 196.266 830.137 193.887 830.137C192.068 830.137 190.783 829.016 190.551 827.402H192.041C192.246 828.236 192.889 828.824 193.887 828.824C195.418 828.824 196.307 827.484 196.32 825.229H196.197C195.664 826.062 194.734 826.568 193.668 826.568C191.891 826.568 190.469 825.215 190.469 823.314C190.469 821.428 191.877 819.951 194.023 819.965ZM194.023 821.223C192.82 821.223 191.932 822.152 191.932 823.287C191.932 824.436 192.793 825.338 193.996 825.338C195.186 825.338 196.115 824.367 196.115 823.273C196.115 822.207 195.24 821.223 194.023 821.223ZM202.705 830.137C200.832 830.137 199.424 828.988 199.355 827.416H200.818C200.9 828.264 201.707 828.879 202.705 828.879C203.908 828.879 204.77 828.004 204.77 826.828C204.77 825.625 203.881 824.75 202.637 824.736C201.844 824.736 201.242 824.996 200.9 825.611H199.479L200.121 820.102H205.727V821.387H201.365L201.037 824.162H201.133C201.543 823.766 202.24 823.492 202.992 823.492C204.852 823.492 206.232 824.873 206.232 826.787C206.232 828.742 204.77 830.137 202.705 830.137ZM211.414 830.137C209.582 830.123 207.668 829.043 207.668 825.379C207.668 821.934 209.158 819.965 211.537 819.965C213.355 819.965 214.627 821.1 214.859 822.672H213.369C213.178 821.865 212.535 821.277 211.537 821.277C210.006 821.277 209.117 822.617 209.117 824.846H209.227C209.76 824.012 210.689 823.506 211.77 823.506C213.533 823.506 214.955 824.859 214.955 826.76C214.955 828.674 213.547 830.15 211.414 830.137ZM211.4 828.879C212.604 828.879 213.492 827.949 213.492 826.787C213.492 825.652 212.631 824.736 211.441 824.736C210.225 824.736 209.309 825.693 209.295 826.801C209.309 827.895 210.184 828.879 211.4 828.879ZM223.418 830.137C221.121 830.137 219.781 828.291 219.781 825.051C219.781 821.838 221.148 819.965 223.418 819.965C225.688 819.965 227.055 821.838 227.055 825.051C227.055 828.291 225.701 830.137 223.418 830.137ZM223.418 828.838C224.758 828.838 225.551 827.525 225.551 825.051C225.551 822.59 224.744 821.236 223.418 821.236C222.092 821.236 221.285 822.59 221.285 825.051C221.285 827.525 222.078 828.838 223.418 828.838ZM228.395 828.072V826.855L232.77 820.102H234.629V826.801H235.982V828.072H234.629V830H233.207V828.072H228.395ZM229.98 826.801H233.207V821.893H233.098L229.98 826.719V826.801ZM237.281 828.072V826.855L241.656 820.102H243.516V826.801H244.869V828.072H243.516V830H242.094V828.072H237.281ZM238.867 826.801H242.094V821.893H241.984L238.867 826.719V826.801ZM249.832 830.137C247.535 830.137 246.195 828.291 246.195 825.051C246.195 821.838 247.562 819.965 249.832 819.965C252.102 819.965 253.469 821.838 253.469 825.051C253.469 828.291 252.115 830.137 249.832 830.137ZM249.832 828.838C251.172 828.838 251.965 827.525 251.965 825.051C251.965 822.59 251.158 821.236 249.832 821.236C248.506 821.236 247.699 822.59 247.699 825.051C247.699 827.525 248.492 828.838 249.832 828.838ZM257.967 826.227C257.953 828.811 257.229 830.957 255.943 832.789H254.604C255.547 831.422 256.449 828.674 256.449 826.227C256.449 823.793 255.547 821.031 254.604 819.678H255.943C257.229 821.51 257.953 823.656 257.967 826.227ZM270.818 828.605V829.699H259.607V828.605H264.543V826.459H260.975V822.562H268.166V820.84H260.947V819.773H269.451V823.602H262.26V825.393H269.738V826.459H265.828V828.605H270.818ZM285.338 818.926V827.949H284.039V824.764H281.004C280.423 825.454 279.534 825.871 278.516 825.871C276.67 825.871 275.303 824.586 275.303 822.781C275.303 820.963 276.67 819.678 278.516 819.664C279.527 819.671 280.409 820.088 280.99 820.771H284.039V818.926H285.338ZM285.666 829.85V830.902H277.381V827.006H278.68V829.85H285.666ZM278.516 820.826C277.367 820.826 276.547 821.619 276.547 822.781C276.547 823.943 277.367 824.723 278.516 824.723C279.623 824.723 280.457 823.943 280.457 822.781C280.457 821.619 279.623 820.826 278.516 820.826ZM281.564 821.824C281.646 822.118 281.701 822.439 281.701 822.781C281.701 823.109 281.653 823.424 281.564 823.711H284.039V821.824H281.564ZM293.295 819.637V823.137H289.029V824.709C291.155 824.702 292.659 824.627 294.443 824.326L294.58 825.379C292.68 825.707 291.066 825.775 288.715 825.775H287.73V822.125H292.023V820.689H287.717V819.637H293.295ZM296.85 818.926V821.988H298.641V823.068H296.85V826.363H295.551V818.926H296.85ZM296.85 826.979V831.148H295.551V828.031H288.756V826.979H296.85ZM313.939 826.117V827.143H308.936V831.162H307.664V827.143H302.729V826.117H313.939ZM305.408 819.404V821.004H311.232V819.404H312.531V824.723H304.123V819.404H305.408ZM305.408 823.684H311.232V822.043H305.408V823.684ZM321.062 819.732V820.785H316.674V822.193H320.83V823.205H316.674V824.682C318.923 824.675 320.263 824.613 321.828 824.34L321.965 825.379C320.283 825.666 318.848 825.734 316.332 825.721H315.375V819.732H321.062ZM324.467 818.912V822.084H326.244V823.178H324.467V826.336H323.168V818.912H324.467ZM324.467 826.896V831.162H323.168V827.949H316.373V826.896H324.467ZM336.867 824.723V825.789H328.336V820.006H336.758V821.072H329.621V824.723H336.867ZM338.152 828.469V829.549H326.941V828.469H338.152ZM349.199 818.926V825.68H347.9V818.926H349.199ZM345.289 819.5V822.918H340.955V824.367C343.095 824.354 344.674 824.299 346.533 823.998L346.697 825.051C344.701 825.379 343.02 825.434 340.709 825.447H339.684V821.906H344.004V820.553H339.656V819.5H345.289ZM342.459 826.254V827.58H347.914V826.254H349.199V831.012H341.16V826.254H342.459ZM342.459 829.959H347.914V828.605H342.459V829.959ZM361.312 818.912V831.162H360.014V818.912H361.312ZM353.178 820.102V826.924C354.962 826.91 356.842 826.767 358.811 826.363L358.988 827.457C356.814 827.895 354.846 828.045 352.918 828.045H351.893V820.102H353.178ZM372.783 818.912V823.656H374.752V824.723H372.783V831.189H371.484V818.912H372.783ZM369.488 820.088V821.141H365.059V827.061C367.116 827.054 368.661 826.965 370.404 826.65L370.568 827.744C368.654 828.086 367.027 828.154 364.744 828.141H363.76V820.088H369.488ZM376.734 830.096C376.201 830.096 375.75 829.658 375.764 829.125C375.75 828.592 376.201 828.154 376.734 828.154C377.254 828.154 377.705 828.592 377.705 829.125C377.705 829.658 377.254 830.096 376.734 830.096Z" fill="#333333"/>
<defs>
<clipPath id="clip0_44_1992">
<rect width="380" height="475" fill="white" transform="translate(25 58)"/>
</clipPath>
<clipPath id="clip1_44_1992">
<rect width="284" height="1" fill="white" transform="translate(74 265)"/>
</clipPath>
</defs>
</svg>
