<svg width="430" height="932" viewBox="0 0 430 932" fill="none" xmlns="http://www.w3.org/2000/svg">
<rect width="430" height="932" fill="white"/>
<mask id="path-1-inside-1_41_1888" fill="white">
<path d="M0 70H430V140H0V70Z"/>
</mask>
<path d="M0 70H430V140H0V70Z" fill="white"/>
<path d="M430 140V139H0V140V141H430V140Z" fill="#DDDDDD" mask="url(#path-1-inside-1_41_1888)"/>
<path d="M145.561 98.1152V99.7148H140.27V107.115C142.757 107.098 144.506 106.992 146.475 106.623L146.686 108.205C144.453 108.645 142.528 108.732 139.566 108.732H138.301V98.1152H145.561ZM144.717 103.863V102.264H148.918V96.6738H150.869V112.582H148.918V103.863H144.717ZM166.32 96.6738V112.582H164.387V96.6738H166.32ZM153.945 99.6445V98.0625H161.434V104.021H155.967V107.221C158.472 107.203 160.625 107.071 163.104 106.658L163.279 108.258C160.581 108.724 158.208 108.829 155.352 108.82H153.963V102.475H159.447V99.6445H153.945ZM181.543 104.127V105.691H170.398V98.0625H181.42V99.6445H172.332V104.127H181.543ZM168.641 110.543V108.926H183.16V110.543H168.641ZM197.996 96.6738V112.564H196.133V96.6738H197.996ZM184.021 107.203H185.463V100.137H184.338V98.5547H191.615V100.137H190.49V106.992C190.991 106.948 191.466 106.896 191.914 106.834L192.037 108.258C189.532 108.768 186.263 108.829 184.25 108.82L184.021 107.203ZM187.221 107.168C187.704 107.159 188.205 107.142 188.697 107.115V100.137H187.221V107.168ZM191.211 104.285V102.545H192.969V97.0078H194.832V111.773H192.969V104.285H191.211ZM212.973 96.6738V112.582H211.004V96.6738H212.973ZM200.264 103.441C200.255 100.014 202.004 97.834 204.412 97.834C206.794 97.834 208.552 100.014 208.561 103.441C208.552 106.896 206.794 109.066 204.412 109.066C202.004 109.066 200.255 106.896 200.264 103.441ZM202.145 103.441C202.145 105.885 203.067 107.3 204.412 107.309C205.748 107.3 206.662 105.885 206.662 103.441C206.662 101.016 205.748 99.5918 204.412 99.5918C203.067 99.5918 202.145 101.016 202.145 103.441ZM223.467 98.0098V100.963H226.666V96.6914H228.617V108.258H226.666V102.527H223.467V105.551H215.996V98.0098H223.467ZM217.947 104.004H221.533V99.5566H217.947V104.004ZM218.193 112.248V107.168H220.145V110.666H229.021V112.248H218.193ZM245.387 109.049V110.648H230.867V109.049H245.387ZM231.5 105.199C234.91 104.689 236.984 102.729 237.116 100.594H232.15V99.0117H237.143V96.9727H239.076V99.0117H244.086V100.594H239.12C239.243 102.729 241.309 104.689 244.736 105.199L243.98 106.764C241.247 106.315 239.155 104.997 238.109 103.178C237.063 104.997 234.963 106.315 232.238 106.764L231.5 105.199ZM251.275 101.525C251.275 103.986 252.286 106.465 254.51 107.66L253.42 109.102C251.943 108.319 250.941 106.922 250.37 105.252C249.808 107.054 248.806 108.601 247.32 109.471L246.178 107.994C248.428 106.693 249.421 104.039 249.43 101.525V101.033H246.723V99.4512H249.43V97.2363H251.275V99.4512H253.93V101.033H251.275V101.525ZM252.945 104.391V102.773H255.02V96.9727H256.865V111.791H255.02V104.391H252.945ZM258.236 112.564V96.6738H260.1V112.564H258.236ZM276.465 104.18V105.744H272.844V107.396H274.689V112.564H272.738V108.926H263.58V107.396H265.549V105.744H261.98V104.18H276.465ZM263.475 100.102C263.475 98.1855 265.725 97.0078 269.205 97.0078C272.694 97.0078 274.927 98.1855 274.936 100.102C274.927 102.044 272.694 103.213 269.205 103.213C265.725 103.213 263.475 102.044 263.475 100.102ZM265.514 100.102C265.496 101.139 266.885 101.692 269.205 101.701C271.525 101.692 272.914 101.139 272.914 100.102C272.914 99.1084 271.525 98.5371 269.205 98.5371C266.885 98.5371 265.496 99.1084 265.514 100.102ZM267.5 107.396H270.91V105.744H267.5V107.396ZM286.414 97.8516V98.8008C286.396 99.8818 286.396 101.464 286.027 103.477L284.094 103.301C284.41 101.666 284.472 100.444 284.489 99.4688H278.311V97.8516H286.414ZM277.361 104.742C278.302 104.733 279.356 104.725 280.473 104.707V101.473H282.406V104.646C284.05 104.575 285.737 104.452 287.275 104.232L287.381 105.639C284.076 106.236 280.323 106.298 277.537 106.307L277.361 104.742ZM279.734 112.248V107.52H281.703V110.666H290.721V112.248H279.734ZM288.207 108.574V96.6738H290.211V101.631H292.268V103.266H290.211V108.574H288.207Z" fill="#333333"/>
<path d="M176.928 194.96V212.92H174.088V194.96H176.928ZM162.728 208.76V196.36H165.528V200.6H168.928V196.36H171.688V208.76H162.728ZM165.528 206.48H168.928V202.76H165.528V206.48ZM188.933 195.8V203.44H180.053V195.8H188.933ZM182.093 212.76V207.72H191.453V206.84H182.093V204.68H194.213V209.68H184.893V210.56H194.613V212.76H182.093ZM182.813 201.28H186.133V198.04H182.813V201.28ZM191.413 203.96V194.96H194.213V203.96H191.413ZM211.619 194.96V208.16H208.819V201.84H205.819V205.4H197.179V196.12H199.979V198.76H203.059V196.12H205.819V199.6H208.819V194.96H211.619ZM199.579 212.6V206.84H202.419V210.32H211.979V212.6H199.579ZM199.979 203.24H203.059V200.88H199.979V203.24ZM229.384 197.08V199.32H214.384V197.08H220.464V195.08H223.264V197.08H229.384ZM213.744 211.12V208.88H220.464V206.98C217.464 206.68 215.664 205.44 215.664 203.48C215.664 201.28 218.044 199.96 221.864 199.96C225.644 199.96 228.064 201.28 228.064 203.48C228.064 205.42 226.224 206.68 223.264 206.98V208.88H230.104V211.12H213.744ZM218.584 203.48C218.564 204.42 219.664 204.82 221.864 204.8C224.024 204.82 225.164 204.42 225.144 203.48C225.164 202.54 224.024 202.16 221.864 202.16C219.664 202.16 218.564 202.54 218.584 203.48ZM250.541 194.96V204.6H247.741V194.96H250.541ZM235.701 199.96C235.721 197.42 237.861 195.64 240.701 195.64C243.501 195.64 245.641 197.42 245.661 199.96C245.641 202.4 243.501 204.18 240.701 204.16C237.861 204.18 235.721 202.4 235.701 199.96ZM238.461 212.68V205.32H241.221V206.84H247.741V205.32H250.541V212.68H238.461ZM238.461 199.96C238.461 201.2 239.381 201.86 240.701 201.88C241.941 201.86 242.861 201.2 242.861 199.96C242.861 198.7 241.941 197.98 240.701 198C239.381 197.98 238.461 198.7 238.461 199.96ZM241.221 210.4H247.741V209H241.221V210.4ZM261.387 195.96V201.76H256.227V203.4C258.687 203.38 260.207 203.28 261.947 202.96L262.187 205.2C260.147 205.56 258.247 205.62 254.827 205.64H253.467V199.68H258.587V198.16H253.427V195.96H261.387ZM255.507 209V206.76H267.947V212.88H265.147V209H255.507ZM262.387 203.44V201.24H265.147V199.6H262.387V197.4H265.147V194.96H267.947V206H265.147V203.44H262.387Z" fill="#999999"/>
<path d="M130.428 234.472V235.592H124.764V236.744H128.828V239.912H120.668V241.064H129.212V242.184H119.228V238.888H127.356V237.832H119.196V236.744H123.292V235.592H117.692V234.472H130.428ZM118.3 232.808C121.004 232.648 122.892 231.816 123.18 230.632H118.94V229.512H123.292V228.264H124.764V229.512H129.148V230.632H124.892C125.164 231.816 127.068 232.648 129.788 232.808L129.34 233.928C126.892 233.752 124.908 233.032 124.044 231.816C123.164 233.032 121.164 233.752 118.716 233.928L118.3 232.808ZM143.169 228.328V235.464H141.697V234.12H138.113V232.968H141.697V231.432H138.305C137.441 233.608 135.329 235.048 132.225 235.752L131.713 234.536C135.057 233.8 136.881 232.248 137.121 230.184H132.449V228.968H138.753C138.753 229.432 138.721 229.864 138.641 230.28H141.697V228.328H143.169ZM134.017 237.224V236.04H143.169V239.592H135.521V241H143.585V242.184H134.049V238.472H141.665V237.224H134.017ZM160.839 228.328V242.344H159.335V228.328H160.839ZM149.991 239.016V229.48H151.495V233.096H155.271V229.48H156.711V239.016H149.991ZM151.495 237.768H155.271V234.248H151.495V237.768ZM170.443 229.064V234.856H163.787V229.064H170.443ZM165.227 233.672H168.971V230.28H165.227V233.672ZM165.451 237.32V236.168H174.635V239.656H166.955V241H175.115V242.184H165.483V238.568H173.195V237.32H165.451ZM173.195 235.496V228.328H174.635V235.496H173.195ZM188.559 228.328V238.696H187.087V233.416H184.015V236.36H177.551V229.256H179.023V231.624H182.543V229.256H184.015V232.2H187.087V228.328H188.559ZM179.023 235.176H182.543V232.776H179.023V235.176ZM179.407 242.024V237.672H180.911V240.84H188.879V242.024H179.407ZM202.835 230.28V231.496H191.315V230.28H196.339V228.52H197.811V230.28H202.835ZM190.707 240.744V239.528H196.339V237.704C193.891 237.544 192.403 236.568 192.403 235.016C192.403 233.336 194.195 232.328 197.075 232.36C199.939 232.328 201.747 233.336 201.747 235.016C201.747 236.568 200.243 237.528 197.811 237.704V239.528H203.539V240.744H190.707ZM193.939 235.016C193.923 235.992 195.091 236.52 197.075 236.52C199.059 236.52 200.227 235.992 200.243 235.016C200.227 234.04 199.059 233.512 197.075 233.512C195.091 233.512 193.923 234.04 193.939 235.016ZM217.335 234.76V235.88H204.535V234.76H217.335ZM206.039 237.928V236.872H215.767V239.944H207.543V241.096H216.183V242.152H206.071V238.952H214.295V237.928H206.039ZM206.135 229.736V228.68H215.735V231.72H207.639V232.776H215.959V233.832H206.167V230.728H214.231V229.736H206.135ZM233.886 228.328V235.848H232.414V228.328H233.886ZM222.558 232.232C222.558 230.296 224.142 228.968 226.302 228.968C228.43 228.968 230.014 230.296 230.014 232.232C230.014 234.136 228.43 235.464 226.302 235.464C224.142 235.464 222.558 234.136 222.558 232.232ZM223.998 232.232C223.998 233.432 224.958 234.232 226.302 234.248C227.598 234.232 228.558 233.432 228.542 232.232C228.558 231.016 227.598 230.216 226.302 230.216C224.958 230.216 223.998 231.016 223.998 232.232ZM224.734 242.152V236.52H226.174V238.088H232.414V236.52H233.886V242.152H224.734ZM226.174 240.936H232.414V239.272H226.174V240.936ZM242.754 229.16V233.256H238.146V235.208C240.594 235.192 241.922 235.128 243.49 234.856L243.618 236.04C241.922 236.344 240.482 236.376 237.698 236.392H236.674V232.136H241.282V230.344H236.642V229.16H242.754ZM238.274 238.856V237.64H247.778V242.344H246.306V238.856H238.274ZM243.65 234.504V233.288H246.306V231.56H243.65V230.376H246.306V228.328H247.778V236.936H246.306V234.504H243.65ZM256.838 230.632V231.848H249.894V230.632H252.646V228.744H254.118V230.632H256.838ZM250.342 235.912C250.342 234.024 251.622 232.68 253.382 232.68C255.158 232.68 256.422 234.024 256.422 235.912C256.422 237.816 255.158 239.16 253.382 239.176C251.622 239.16 250.342 237.816 250.342 235.912ZM251.654 235.912C251.654 237.096 252.374 237.896 253.382 237.896C254.39 237.896 255.11 237.096 255.11 235.912C255.11 234.744 254.39 233.928 253.382 233.928C252.374 233.928 251.654 234.744 251.654 235.912ZM257.51 241.672V228.648H258.886V234.152H260.518V228.328H261.926V242.312H260.518V235.368H258.886V241.672H257.51ZM280.428 236.2V237.416H274.732V242.312H273.292V237.416H267.66V236.2H280.428ZM268.364 233.992C271.004 233.624 273.164 232.056 273.196 230.344H268.844V229.16H279.244V230.344H274.892C274.908 232.056 277.068 233.624 279.724 233.992L279.18 235.144C276.892 234.792 274.908 233.672 274.044 232.088C273.18 233.672 271.212 234.792 268.94 235.144L268.364 233.992ZM285.745 232.136C285.761 234.392 286.689 236.776 288.561 237.928L287.729 239.08C286.433 238.28 285.537 236.888 285.057 235.256C284.545 237.032 283.585 238.536 282.225 239.368L281.297 238.28C283.281 237.08 284.321 234.6 284.337 232.232V229.608H285.745V232.136ZM287.057 234.472V233.256H289.233V228.584H290.641V241.64H289.233V234.472H287.057ZM292.113 242.312V228.328H293.521V242.312H292.113ZM308.149 239.336V240.584H295.317V239.336H298.389V235.688C297.237 235.064 296.533 234.056 296.533 232.808C296.533 230.6 298.693 229.144 301.685 229.128C304.709 229.144 306.869 230.6 306.869 232.808C306.869 234.024 306.197 235.016 305.077 235.656V239.336H308.149ZM297.973 232.808C297.973 234.296 299.493 235.272 301.685 235.272C303.877 235.272 305.429 234.296 305.429 232.808C305.429 231.288 303.877 230.328 301.685 230.344C299.493 230.328 297.973 231.288 297.973 232.808ZM299.861 239.336H303.573V236.216C302.997 236.36 302.357 236.424 301.685 236.424C301.029 236.424 300.421 236.36 299.861 236.232V239.336ZM310.745 241.096C310.137 241.112 309.625 240.616 309.625 240.008C309.625 239.384 310.137 238.888 310.745 238.888C311.337 238.888 311.849 239.384 311.833 240.008C311.849 240.616 311.337 241.112 310.745 241.096Z" fill="#666666"/>
<path d="M41.8449 103.615H28.9419L34.579 97.9781C35.0295 97.5276 35.0295 96.7883 34.579 96.3378C34.4721 96.2307 34.3452 96.1458 34.2054 96.0878C34.0657 96.0298 33.9159 96 33.7646 96C33.6133 96 33.4635 96.0298 33.3238 96.0878C33.184 96.1458 33.0571 96.2307 32.9502 96.3378L25.3378 103.95C25.2307 104.057 25.1458 104.184 25.0878 104.324C25.0298 104.464 25 104.613 25 104.765C25 104.916 25.0298 105.066 25.0878 105.205C25.1458 105.345 25.2307 105.472 25.3378 105.579L32.9502 113.191C33.0572 113.298 33.1841 113.383 33.3239 113.441C33.4636 113.499 33.6134 113.529 33.7646 113.529C33.9159 113.529 34.0656 113.499 34.2053 113.441C34.3451 113.383 34.472 113.298 34.579 113.191C34.6859 113.084 34.7708 112.957 34.8286 112.818C34.8865 112.678 34.9163 112.528 34.9163 112.377C34.9163 112.226 34.8865 112.076 34.8286 111.936C34.7708 111.797 34.6859 111.67 34.579 111.563L28.9419 105.926H41.8449C42.4802 105.926 43 105.406 43 104.77C43 104.135 42.4802 103.615 41.8449 103.615Z" fill="#222222"/>
<path d="M115.7 335L124.34 317.96V317.84H114.2V313.76H129.5V317.84L120.8 335H115.7Z" fill="#111111"/>
<g filter="url(#filter0_d_41_1888)">
<path d="M187.103 335.293C182.474 335.293 179.104 332.598 179.046 328.818H183.909C183.968 330.4 185.374 331.426 187.103 331.426C189.095 331.426 190.53 330.02 190.501 327.969C190.53 325.889 189.065 324.482 187.044 324.482C185.521 324.482 184.524 325.068 183.938 326.211H179.456L180.511 313.789H194.075V317.832H184.612L184.114 322.9H184.261C184.993 321.729 186.634 320.908 188.626 320.908C192.493 320.908 195.335 323.779 195.335 327.822C195.335 332.188 192.024 335.293 187.103 335.293Z" fill="#BA7165"/>
</g>
<rect x="243" y="317" width="12" height="12" rx="6" fill="#D9D9D9"/>
<rect x="305" y="317" width="12" height="12" rx="6" fill="#D9D9D9"/>
<path d="M75.1764 523.76V545H71.9364V527H71.8164L66.7764 530.3V527.24L72.0564 523.76H75.1764Z" fill="#333333"/>
<path d="M72.6796 651.3C68.7796 651.27 64.6696 648.93 64.6996 641.1C64.6696 633.72 67.8796 629.49 72.9796 629.52C76.8496 629.49 79.5796 631.92 80.0596 635.28H76.8796C76.4596 633.57 75.1096 632.31 72.9796 632.34C69.6796 632.31 67.7596 635.16 67.7596 639.96H67.9996C69.1396 638.16 71.1496 637.11 73.4596 637.08C77.2396 637.11 80.2696 639.99 80.2996 644.04C80.2696 648.18 77.2396 651.33 72.6796 651.3ZM68.1796 644.16C68.1796 646.5 70.0396 648.6 72.6796 648.6C75.2296 648.6 77.1496 646.59 77.1796 644.1C77.1496 641.67 75.2896 639.72 72.7396 639.72C70.1596 639.72 68.1796 641.79 68.1796 644.16Z" fill="#333333"/>
<path d="M66.6864 757L76.1664 738.7V738.58H65.2464V735.76H79.5264V738.64L70.0464 757H66.6864Z" fill="#333333"/>
<path d="M207.954 545V542.66L215.334 535.22C217.644 532.82 218.814 531.47 218.814 529.64C218.814 527.54 217.104 526.19 214.854 526.22C212.514 526.19 211.014 527.69 211.014 529.94H207.954C207.954 526.07 210.894 523.49 214.974 523.52C219.024 523.49 221.874 526.07 221.874 529.52C221.874 531.89 220.734 533.78 216.774 537.68L212.454 542.06V542.24H222.234V545H207.954Z" fill="#333333"/>
<path d="M215.523 651.3C211.473 651.3 208.443 648.84 208.323 645.48H211.443C211.623 647.28 213.333 648.6 215.523 648.6C218.073 648.6 219.903 646.74 219.903 644.22C219.903 641.61 218.013 639.75 215.343 639.72C213.633 639.72 212.343 640.29 211.623 641.58H208.563L209.943 629.76H221.943V632.58H212.643L211.923 638.46H212.103C213.003 637.65 214.473 637.05 216.123 637.08C220.083 637.05 223.053 640.02 223.023 644.1C223.053 648.3 219.903 651.3 215.523 651.3Z" fill="#333333"/>
<path d="M215.528 757.3C210.908 757.3 207.698 754.81 207.728 751.36C207.698 748.63 209.648 746.41 212.108 746.02V745.9C209.978 745.39 208.508 743.47 208.508 741.16C208.508 737.89 211.478 735.49 215.528 735.52C219.518 735.49 222.458 737.89 222.488 741.16C222.458 743.47 220.988 745.39 218.888 745.9V746.02C221.318 746.41 223.298 748.63 223.328 751.36C223.298 754.81 220.058 757.3 215.528 757.3ZM210.968 751.12C210.968 753.19 212.708 754.63 215.528 754.6C218.258 754.63 220.028 753.19 220.028 751.12C220.028 748.93 218.108 747.34 215.528 747.34C212.888 747.34 210.968 748.93 210.968 751.12ZM211.688 741.4C211.658 743.44 213.248 744.79 215.528 744.82C217.718 744.79 219.338 743.44 219.308 741.4C219.338 739.48 217.778 738.13 215.528 738.1C213.188 738.13 211.658 739.45 211.688 741.4Z" fill="#333333"/>
<path d="M215.497 863.3C210.607 863.3 207.727 859.34 207.697 852.38C207.727 845.51 210.637 841.49 215.497 841.52C220.387 841.49 223.297 845.51 223.297 852.38C223.297 859.34 220.417 863.3 215.497 863.3ZM210.937 852.38C210.937 857.69 212.647 860.51 215.497 860.54C218.377 860.51 220.087 857.69 220.057 852.38C220.087 847.13 218.347 844.22 215.497 844.22C212.677 844.22 210.937 847.13 210.937 852.38Z" fill="#333333"/>
<path d="M359.56 545.3C355.15 545.3 352.03 542.93 351.88 539.48H355.18C355.3 541.31 357.13 542.51 359.5 542.54C362.08 542.51 363.94 541.1 363.94 539.06C363.94 536.96 362.2 535.46 359.14 535.46H357.34V532.82H359.14C361.57 532.82 363.28 531.47 363.28 529.46C363.28 527.51 361.81 526.19 359.56 526.22C357.43 526.19 355.54 527.39 355.48 529.28H352.36C352.45 525.83 355.63 523.49 359.62 523.52C363.76 523.49 366.4 526.13 366.4 529.28C366.4 531.68 364.9 533.42 362.62 533.96V534.14C365.5 534.53 367.21 536.48 367.18 539.18C367.21 542.72 363.94 545.3 359.56 545.3Z" fill="#333333"/>
<path d="M350.933 646.86V644.28L360.293 629.76H364.253V644.16H367.133V646.86H364.253V651H361.193V646.86H350.933ZM354.293 644.16H361.193V633.6H361.013L354.293 643.98V644.16Z" fill="#333333"/>
<path d="M359.32 735.52C363.22 735.52 367.3 737.86 367.3 745.66C367.3 753.07 364.12 757.3 359.02 757.3C355.12 757.3 352.39 754.87 351.88 751.42H355.06C355.51 753.22 356.86 754.48 359.02 754.48C362.29 754.48 364.21 751.63 364.24 746.74H363.94C362.83 748.57 360.82 749.65 358.54 749.62C354.73 749.65 351.7 746.74 351.7 742.66C351.7 738.64 354.7 735.46 359.32 735.52ZM354.82 742.6C354.85 745.09 356.68 747.01 359.26 747.04C361.81 747.01 363.79 744.94 363.82 742.6C363.79 740.29 361.9 738.19 359.32 738.22C356.74 738.19 354.82 740.2 354.82 742.6Z" fill="#333333"/>
<path fill-rule="evenodd" clip-rule="evenodd" d="M67.928 842C67.4192 842 66.9187 842.129 66.4737 842.376C66.0287 842.623 65.6537 842.979 65.384 843.41L61.304 849.94C61.1053 850.258 61 850.625 61 851C61 851.375 61.1053 851.742 61.304 852.06L65.384 858.59C65.6537 859.021 66.0287 859.377 66.4737 859.624C66.9187 859.871 67.4192 860 67.928 860H78.82C79.6157 860 80.3787 859.684 80.9413 859.121C81.5039 858.559 81.82 857.796 81.82 857V845C81.82 844.204 81.5039 843.441 80.9413 842.879C80.3787 842.316 79.6157 842 78.82 842H67.928ZM76.355 854.536C76.1675 854.723 75.9132 854.829 75.648 854.829C75.3828 854.829 75.1285 854.723 74.941 854.536L72.82 852.414L70.699 854.536C70.5114 854.724 70.2569 854.829 69.9915 854.829C69.7261 854.829 69.4716 854.724 69.284 854.536C69.0964 854.348 68.9909 854.094 68.9909 853.828C68.9909 853.563 69.0964 853.309 69.284 853.121L71.406 851L69.284 848.879C69.0964 848.691 68.9909 848.437 68.9909 848.172C68.9909 847.906 69.0964 847.652 69.284 847.464C69.4716 847.276 69.7261 847.171 69.9915 847.171C70.2569 847.171 70.5114 847.276 70.699 847.464L72.82 849.586L74.941 847.464C75.0339 847.371 75.1442 847.298 75.2656 847.247C75.3869 847.197 75.517 847.171 75.6484 847.171C75.7797 847.171 75.9098 847.197 76.0311 847.248C76.1524 847.298 76.2627 847.372 76.3555 847.465C76.4483 847.557 76.522 847.668 76.5722 847.789C76.6224 847.91 76.6483 848.041 76.6482 848.172C76.6482 848.303 76.6222 848.433 76.5719 848.555C76.5216 848.676 76.4479 848.786 76.355 848.879L74.235 851L76.355 853.121C76.448 853.214 76.5217 853.324 76.5721 853.446C76.6224 853.567 76.6483 853.697 76.6483 853.828C76.6483 853.96 76.6224 854.09 76.5721 854.211C76.5217 854.333 76.448 854.443 76.355 854.536Z" fill="#333333"/>
<g filter="url(#filter1_d_41_1888)">
<rect x="125" y="397" width="180" height="50" rx="25" fill="#BA7165"/>
</g>
<path d="M213.351 414.296V418.392H215.271V419.832H213.351V423.832H211.623V414.296H213.351ZM202.055 422.136C203.111 422.136 204.343 422.136 205.607 422.104V421.224C204.039 421.032 203.047 420.28 203.047 419.16C203.047 417.864 204.407 417.064 206.471 417.08C208.503 417.064 209.863 417.864 209.863 419.16C209.863 420.28 208.887 421.016 207.335 421.224V422.04C208.551 421.976 209.751 421.88 210.887 421.72L211.015 422.936C208.023 423.464 204.711 423.496 202.247 423.512L202.055 422.136ZM202.407 416.664V415.384H205.607V414.168H207.335V415.384H210.503V416.664H202.407ZM203.815 425.784V424.44H213.351V428.376H211.623V425.784H203.815ZM204.711 419.16C204.711 419.752 205.351 420.12 206.471 420.12C207.543 420.12 208.199 419.752 208.199 419.16C208.199 418.552 207.543 418.248 206.471 418.232C205.351 418.248 204.711 418.552 204.711 419.16ZM227.755 414.296V424.472H226.027V414.296H227.755ZM216.267 418.744C216.251 416.68 217.915 415.208 220.075 415.224C222.203 415.208 223.867 416.68 223.851 418.744C223.867 420.824 222.203 422.28 220.075 422.264C217.915 422.28 216.251 420.824 216.267 418.744ZM217.963 418.744C217.947 419.992 218.859 420.76 220.075 420.76C221.243 420.76 222.155 419.992 222.155 418.744C222.155 417.512 221.243 416.728 220.075 416.728C218.859 416.728 217.947 417.512 217.963 418.744ZM218.411 428.12V423.448H220.171V426.712H228.139V428.12H218.411Z" fill="white"/>
<path d="M29.6582 34.1465C27.5488 34.1465 26.0327 33.0186 25.9668 31.334H27.2998C27.373 32.3447 28.3765 32.9746 29.6436 32.9746C31.0425 32.9746 32.0532 32.2202 32.0605 31.1143C32.0532 29.957 31.1304 29.144 29.4824 29.1367H28.6182V27.9795H29.4824C30.7715 27.9795 31.6724 27.2544 31.665 26.1631C31.6724 25.1011 30.896 24.3979 29.6875 24.3906C28.5522 24.3979 27.5195 25.0205 27.4609 26.0605H26.1865C26.2524 24.376 27.8198 23.248 29.7021 23.248C31.7236 23.248 32.9541 24.5737 32.9395 26.0898C32.9541 27.2983 32.251 28.1772 31.1377 28.4922V28.5654C32.522 28.7778 33.3569 29.7666 33.3496 31.1143C33.3569 32.8574 31.7749 34.1465 29.6582 34.1465ZM36.1621 32.5938C35.6494 32.5864 35.21 32.1616 35.2246 31.6416C35.21 31.1289 35.6494 30.7041 36.1621 30.7041C36.6821 30.7041 37.1069 31.1289 37.0996 31.6416C37.1069 32.1616 36.6821 32.5864 36.1621 32.5938ZM35.2246 25.7529C35.21 25.2402 35.6494 24.8154 36.1621 24.8154C36.6821 24.8154 37.1069 25.2402 37.0996 25.7529C37.1069 26.2729 36.6821 26.6978 36.1621 26.7051C35.6494 26.6978 35.21 26.2729 35.2246 25.7529ZM42.8125 23.3945V34H41.4795V24.7715H41.4209L38.8428 26.4854V25.1523L41.4795 23.3945H42.8125ZM49.0967 34.1465C47.1851 34.1465 45.7349 32.9673 45.6543 31.334H46.9287C47.0239 32.2788 47.9468 32.9819 49.0967 32.9893C50.4736 32.9819 51.4697 31.9785 51.4697 30.6455C51.4697 29.2686 50.437 28.2505 49.0088 28.2432C48.1152 28.2285 47.4194 28.5068 47.0312 29.1953H45.7568L46.5039 23.3945H52.2461V24.5664H47.6025L47.207 27.6719H47.3096C47.7856 27.3057 48.4961 27.0566 49.2432 27.0566C51.2646 27.0566 52.7515 28.5508 52.7588 30.6162C52.7515 32.667 51.2134 34.1465 49.0967 34.1465Z" fill="#121212"/>
<path d="M398 25H382V32H398V25Z" fill="#121212"/>
<path d="M402.954 26.341V23H379.993V34H402.954V30.659H405V26.3435H402.954V26.341ZM404.086 29.7529H402.04V33.0939H380.91V23.9012H402.04V27.2447H404.086V29.7529Z" fill="#121212"/>
<path d="M364.79 30.6196C363.89 30.6196 363.161 31.3401 363.161 32.2291C363.161 33.1181 363.89 33.8385 364.79 33.8385C365.689 33.8385 366.418 33.1181 366.418 32.2291C366.421 31.3401 365.692 30.6196 364.79 30.6196Z" fill="#121212"/>
<path d="M360.75 28.5634C360.332 28.9761 360.332 29.6478 360.75 30.0605C361.167 30.4732 361.847 30.4732 362.265 30.0605C363.609 28.727 365.967 28.7295 367.313 30.0605C367.524 30.2681 367.798 30.3707 368.072 30.3707C368.347 30.3707 368.621 30.2681 368.828 30.0605C369.246 29.6478 369.246 28.9761 368.828 28.5634C366.676 26.4288 362.907 26.4264 360.75 28.5634Z" fill="#121212"/>
<path d="M371.515 25.9087C369.718 24.1332 367.331 23.1587 364.791 23.1587C362.25 23.1587 359.863 24.1356 358.066 25.9087C357.649 26.3214 357.649 26.9931 358.066 27.4058C358.484 27.8185 359.163 27.8185 359.581 27.4058C362.361 24.6607 367.215 24.6607 369.998 27.4058C370.208 27.6134 370.482 27.716 370.756 27.716C371.031 27.716 371.305 27.6134 371.515 27.4058C371.935 26.9931 371.935 26.3239 371.515 25.9087Z" fill="#121212"/>
<path d="M350.282 23.3152C349.716 23.3152 349.256 23.7695 349.256 24.3287V32.6691C349.256 33.2283 349.716 33.6826 350.282 33.6826C350.848 33.6826 351.307 33.2283 351.307 32.6691V24.3287C351.307 23.7695 350.848 23.3152 350.282 23.3152Z" fill="#121212"/>
<path d="M346.553 25.8064C345.987 25.8064 345.527 26.2607 345.527 26.8199V32.6692C345.527 33.2285 345.987 33.6827 346.553 33.6827C347.119 33.6827 347.578 33.2285 347.578 32.6692V26.8199C347.578 26.2607 347.119 25.8064 346.553 25.8064Z" fill="#121212"/>
<path d="M342.79 27.8723C342.224 27.8723 341.765 28.3266 341.765 28.8859V32.6689C341.765 33.2282 342.224 33.6825 342.79 33.6825C343.356 33.6825 343.816 33.2282 343.816 32.6689V28.8859C343.816 28.3266 343.356 27.8723 342.79 27.8723Z" fill="#121212"/>
<path d="M339.026 29.0007C338.46 29.0007 338 29.455 338 30.0143V32.669C338 33.2283 338.46 33.6826 339.026 33.6826C339.592 33.6826 340.051 33.2283 340.051 32.669V30.0143C340.051 29.455 339.592 29.0007 339.026 29.0007Z" fill="#121212"/>
<defs>
<filter id="filter0_d_41_1888" x="170.046" y="304.789" width="36.2891" height="41.5039" filterUnits="userSpaceOnUse" color-interpolation-filters="sRGB">
<feFlood flood-opacity="0" result="BackgroundImageFix"/>
<feColorMatrix in="SourceAlpha" type="matrix" values="0 0 0 0 0 0 0 0 0 0 0 0 0 0 0 0 0 0 127 0" result="hardAlpha"/>
<feOffset dx="1" dy="1"/>
<feGaussianBlur stdDeviation="5"/>
<feComposite in2="hardAlpha" operator="out"/>
<feColorMatrix type="matrix" values="0 0 0 0 0 0 0 0 0 0 0 0 0 0 0 0 0 0 0.15 0"/>
<feBlend mode="normal" in2="BackgroundImageFix" result="effect1_dropShadow_41_1888"/>
<feBlend mode="normal" in="SourceGraphic" in2="effect1_dropShadow_41_1888" result="shape"/>
</filter>
<filter id="filter1_d_41_1888" x="116" y="388" width="200" height="70" filterUnits="userSpaceOnUse" color-interpolation-filters="sRGB">
<feFlood flood-opacity="0" result="BackgroundImageFix"/>
<feColorMatrix in="SourceAlpha" type="matrix" values="0 0 0 0 0 0 0 0 0 0 0 0 0 0 0 0 0 0 127 0" result="hardAlpha"/>
<feOffset dx="1" dy="1"/>
<feGaussianBlur stdDeviation="5"/>
<feComposite in2="hardAlpha" operator="out"/>
<feColorMatrix type="matrix" values="0 0 0 0 0 0 0 0 0 0 0 0 0 0 0 0 0 0 0.15 0"/>
<feBlend mode="normal" in2="BackgroundImageFix" result="effect1_dropShadow_41_1888"/>
<feBlend mode="normal" in="SourceGraphic" in2="effect1_dropShadow_41_1888" result="shape"/>
</filter>
</defs>
</svg>
